<svg width="13" height="13" viewBox="0 0 13 13" fill="none" xmlns="http://www.w3.org/2000/svg">
<path d="M1.32969 4.30039C1.48205 4.14807 1.68868 4.0625 1.90412 4.0625C2.11957 4.0625 2.32619 4.14807 2.47856 4.30039L6.50044 8.32226L10.5223 4.30039C10.6756 4.15239 10.8808 4.07049 11.0938 4.07234C11.3069 4.07419 11.5106 4.15964 11.6613 4.31029C11.8119 4.46093 11.8974 4.66472 11.8992 4.87775C11.9011 5.09079 11.8192 5.29602 11.6712 5.44926L7.07487 10.0456C6.92251 10.1979 6.71588 10.2835 6.50044 10.2835C6.28499 10.2835 6.07836 10.1979 5.926 10.0456L1.32969 5.44926C1.17737 5.2969 1.0918 5.09027 1.0918 4.87483C1.0918 4.65938 1.17737 4.45276 1.32969 4.30039Z" fill="black" fill-opacity="0.79"/>
</svg>
