<svg width="13" height="13" viewBox="0 0 13 13" fill="none" xmlns="http://www.w3.org/2000/svg">
<path d="M4.30039 11.6703C4.14807 11.5179 4.0625 11.3113 4.0625 11.0959C4.0625 10.8804 4.14807 10.6738 4.30039 10.5214L8.32226 6.49956L4.30039 2.47769C4.15239 2.32445 4.07049 2.11921 4.07234 1.90618C4.07419 1.69314 4.15964 1.48936 4.31029 1.33871C4.46093 1.18807 4.66472 1.10262 4.87775 1.10077C5.09079 1.09892 5.29602 1.18081 5.44926 1.32881L10.0456 5.92513C10.1979 6.07749 10.2835 6.28412 10.2835 6.49956C10.2835 6.71501 10.1979 6.92164 10.0456 7.074L5.44926 11.6703C5.2969 11.8226 5.09027 11.9082 4.87483 11.9082C4.65938 11.9082 4.45276 11.8226 4.30039 11.6703Z" fill="black" fill-opacity="0.79"/>
</svg>
