<svg width="18" height="20" viewBox="0 0 18 20" fill="none" xmlns="http://www.w3.org/2000/svg">
<path d="M8.99927 0C9.93622 0 10.8492 0.107995 11.7251 0.310985C11.8548 0.338927 11.9776 0.392386 12.0864 0.468251C12.1952 0.544115 12.2878 0.640868 12.3589 0.752875C12.4299 0.864883 12.478 0.989906 12.5003 1.12066C12.5225 1.25142 12.5185 1.38531 12.4886 1.51451C12.4586 1.64372 12.4032 1.76567 12.3256 1.87327C12.2481 1.98086 12.1499 2.07195 12.0367 2.14123C11.9236 2.2105 11.7979 2.25658 11.6668 2.27678C11.5357 2.29698 11.4019 2.2909 11.2732 2.25889C10.7801 2.14433 10.279 2.06744 9.77423 2.0289L9.70023 2.0269C11.2546 2.14586 12.7509 2.66876 14.041 3.54383L14.647 2.93786C14.7398 2.84495 14.8501 2.77124 14.9714 2.72094C15.0927 2.67063 15.2228 2.64471 15.3541 2.64467C15.4854 2.64462 15.6155 2.67045 15.7369 2.72067C15.8582 2.77088 15.9685 2.84452 16.0614 2.93736C16.1543 3.0302 16.228 3.14043 16.2783 3.26175C16.3287 3.38308 16.3546 3.51313 16.3546 3.64447C16.3547 3.77581 16.3288 3.90588 16.2786 4.02724C16.2284 4.1486 16.1548 4.25888 16.0619 4.35179L15.5669 4.84676C16.9645 6.33844 17.8127 8.26145 17.9718 10.2994C18.131 12.3373 17.5916 14.3686 16.4425 16.0591C15.2934 17.7497 13.603 18.9987 11.6495 19.6005C9.696 20.2024 7.59582 20.1214 5.69455 19.3707C3.79327 18.62 2.2042 17.2444 1.18883 15.4703C0.173452 13.6962 -0.207721 11.6293 0.108034 9.60978C0.423789 7.59021 1.41766 5.7383 2.92609 4.35881C4.43451 2.97931 6.36762 2.15443 8.4073 2.0199L8.2713 2.0259C7.75068 2.06289 7.23378 2.14079 6.72538 2.25889C6.46879 2.31418 6.20075 2.26637 5.97911 2.12578C5.75746 1.98518 5.59998 1.76308 5.54066 1.50739C5.48133 1.25171 5.52491 0.982953 5.662 0.759121C5.79909 0.535288 6.01868 0.374331 6.2734 0.310985C7.14936 0.107995 8.06331 0 8.99927 0ZM8.99927 3.9998C8.08006 3.9998 7.16985 4.18086 6.32061 4.53262C5.47138 4.88439 4.69974 5.39998 4.04976 6.04996C3.39978 6.69994 2.88419 7.47157 2.53243 8.32081C2.18066 9.17005 1.99961 10.0803 1.99961 10.9995C1.99961 11.9187 2.18066 12.8289 2.53243 13.6781C2.88419 14.5274 3.39978 15.299 4.04976 15.949C4.69974 16.5989 5.47138 17.1145 6.32061 17.4663C7.16985 17.8181 8.08006 17.9991 8.99927 17.9991C10.8557 17.9991 12.6361 17.2617 13.9488 15.949C15.2615 14.6363 15.9989 12.8559 15.9989 10.9995C15.9989 9.14304 15.2615 7.36265 13.9488 6.04996C12.6361 4.73727 10.8557 3.9998 8.99927 3.9998ZM8.99927 5.99971C9.24419 5.99974 9.48058 6.08966 9.66361 6.25241C9.84663 6.41516 9.96356 6.63943 9.99222 6.88266L9.99922 6.99966V10.9995C9.99894 11.2543 9.90135 11.4995 9.72638 11.6848C9.55142 11.8701 9.3123 11.9816 9.05787 11.9966C8.80344 12.0115 8.55291 11.9287 8.35747 11.7652C8.16202 11.6016 8.03642 11.3695 8.00632 11.1165L7.99932 10.9995V6.99966C7.99932 6.73445 8.10467 6.48011 8.2922 6.29259C8.47972 6.10506 8.73406 5.99971 8.99927 5.99971Z" fill="#232266"/>
</svg>
