<svg width="40" height="40" viewBox="0 0 40 40" fill="none" xmlns="http://www.w3.org/2000/svg">
<path d="M9.16634 15.0003C9.82938 15.0003 10.4653 14.7369 10.9341 14.2681C11.4029 13.7993 11.6663 13.1634 11.6663 12.5003C11.6663 11.8373 11.4029 11.2014 10.9341 10.7326C10.4653 10.2637 9.82938 10.0003 9.16634 10.0003C8.5033 10.0003 7.86741 10.2637 7.39857 10.7326C6.92973 11.2014 6.66634 11.8373 6.66634 12.5003C6.66634 13.1634 6.92973 13.7993 7.39857 14.2681C7.86741 14.7369 8.5033 15.0003 9.16634 15.0003ZM29.0163 19.3003C29.6163 19.9003 29.9997 20.7337 29.9997 21.667C29.9997 22.5837 29.633 23.417 29.0163 24.017L20.683 32.3503C20.3739 32.661 20.0064 32.9076 19.6017 33.0759C19.197 33.2441 18.763 33.3307 18.3247 33.3307C17.8864 33.3307 17.4524 33.2441 17.0477 33.0759C16.643 32.9076 16.2755 32.661 15.9663 32.3503L4.31634 20.7003C3.69967 20.0837 3.33301 19.2503 3.33301 18.3337V10.0003C3.33301 8.15033 4.81634 6.66699 6.66634 6.66699H14.9997C15.9163 6.66699 16.7497 7.03366 17.3497 7.63366L29.0163 19.3003ZM22.5663 9.51699L24.233 7.85033L35.683 19.3003C36.2997 19.9003 36.6663 20.7503 36.6663 21.667C36.6663 22.5837 36.2997 23.417 35.6997 24.017L26.733 32.9837L25.0663 31.317L34.583 21.667L22.5663 9.51699Z" fill="white"/>
</svg>
