<svg width="40" height="40" viewBox="0 0 40 40" fill="none" xmlns="http://www.w3.org/2000/svg">
<circle cx="20" cy="20" r="20" fill="#F0F0F0"/>
<circle cx="26" cy="14" r="4" fill="#D42828"/>
<path d="M20 28.373C21.0354 28.373 21.8823 27.6081 21.8823 26.673H18.1176C18.1176 27.6081 18.9646 28.373 20 28.373ZM26.1177 23.273V18.598C26.1177 16.0055 24.0942 13.7956 21.4118 13.243V12.648C21.4118 11.9255 20.8001 11.373 20 11.373C19.1999 11.373 18.5882 11.9255 18.5882 12.648V13.243C15.9057 13.7956 13.8823 16.0055 13.8823 18.598V23.273L12 24.973V25.823H28V24.973L26.1177 23.273Z" fill="black" fill-opacity="0.79"/>
</svg>
