<svg width="36" height="46" viewBox="0 0 36 46" fill="none" xmlns="http://www.w3.org/2000/svg">
<path d="M29.8908 25.6269C33.5034 27.2205 36 30.5916 36 34.5V45.1786C36 45.632 35.5968 46 35.1 46H0.9C0.4032 46 0 45.632 0 45.1786V34.5C0 30.5916 2.4966 27.2205 6.1092 25.6269C6.4962 25.4561 6.966 25.5826 7.218 25.8996L16.2 37.1696V31.7219L14.5206 29.1295C14.1768 28.5989 14.5962 27.9286 15.2712 27.9286H20.7306C21.4056 27.9286 21.825 28.5989 21.4812 29.1295L19.8 31.7219V37.1696L28.7802 25.898C29.034 25.5826 29.5038 25.4561 29.8908 25.6269ZM34.2 14.7857C34.2 17.3847 33.4494 19.9426 32.031 22.1802C31.7106 22.6879 31.1166 23 30.474 23H25.3998C24.9048 23.5011 24.1974 23.8214 23.4 23.8214C21.9096 23.8214 20.7 22.7174 20.7 21.3571C20.7 19.9969 21.9096 18.8929 23.4 18.8929C24.1974 18.8929 24.9048 19.2132 25.3998 19.7143H29.3868C30.1842 18.1831 30.6 16.4976 30.6 14.7857C30.6 8.44429 24.948 3.28571 18 3.28571C12.2472 3.28571 7.2306 6.831 5.7978 11.9091C5.724 12.167 5.4 13.3712 5.4 13.3712C5.4 13.3712 5.4 17.0266 5.4 17.894C5.4 18.8025 4.5936 19.5451 3.6 19.5451C1.548 19.5451 0 18.2045 0 16.4269V13.1412C0 11.6199 1.1394 10.3352 2.6802 9.96393C4.9104 4.04307 11.0358 0 18 0C26.9316 0 34.2 6.63386 34.2 14.7857Z" fill="white"/>
<path d="M28.8002 14.7849C28.8002 15.4453 28.7264 16.1074 28.5842 16.753C28.388 17.6434 27.4358 18.2217 26.4638 18.0377C25.4882 17.857 24.8582 16.9896 25.0562 16.1008C25.1516 15.6704 25.2002 15.2268 25.2002 14.7849C25.2002 14.1409 25.067 13.5314 24.8762 12.9432C22.6424 12.5292 21.2726 11.4417 20.5328 9.96966C19.271 11.8639 17.0084 13.142 14.4002 13.142H11.0558C10.9046 13.671 10.8002 14.2148 10.8002 14.7849C10.8002 17.8981 13.2212 20.6072 16.5584 21.2265C17.5322 21.4056 18.1622 22.2747 17.9642 23.1634C17.768 24.0473 16.8212 24.6272 15.842 24.4449C10.8344 23.5167 7.2002 19.4539 7.2002 14.7849C7.2002 9.34866 12.044 4.92773 18.0002 4.92773C23.9564 4.92773 28.8002 9.34866 28.8002 14.7849Z" fill="white"/>
</svg>
