<svg width="43" height="39" viewBox="0 0 43 39" fill="none" xmlns="http://www.w3.org/2000/svg">
<g clip-path="url(#clip0_715_1381)">
<path d="M4.1426e-06 15.8439C-0.00271717 12.2587 1.33537 8.77854 3.79562 5.97228C6.25586 3.16601 9.69279 1.19953 13.5448 0.39417C17.3967 -0.411187 21.436 -0.00779651 25.0025 1.53842C28.569 3.08464 31.4518 5.68226 33.1799 8.90681C35.6813 10.0128 37.8552 11.6448 39.5205 13.6669C41.1858 15.689 42.2944 18.0427 42.754 20.5319C43.2136 23.0212 43.0108 25.5741 42.1625 27.9779C41.3143 30.3817 39.8451 32.5669 37.8774 34.3516C35.9096 36.1363 33.5003 37.4688 30.8499 38.2382C28.1995 39.0075 25.3849 39.1914 22.6403 38.7746C19.8957 38.3578 17.3006 37.3523 15.0711 35.8419C12.8416 34.3315 11.0422 32.3598 9.82282 30.0911C6.8773 28.7906 4.39433 26.7651 2.65742 24.2459C0.920509 21.7266 -0.000342933 18.8152 4.1426e-06 15.8439ZM13.8245 31.3416C15.1075 32.8507 16.7305 34.0944 18.5852 34.9897C20.44 35.8851 22.4839 36.4115 24.5807 36.5339C26.6774 36.6563 28.7789 36.3719 30.7449 35.6995C32.7109 35.0272 34.4963 33.9825 35.982 32.635C37.4677 31.2875 38.6196 29.6682 39.3608 27.8851C40.1021 26.102 40.4157 24.196 40.2808 22.2943C40.1458 20.3925 39.5654 18.5388 38.5782 16.8566C37.591 15.1743 36.2198 13.7023 34.5559 12.5387C35.1644 15.1235 35.0503 17.8053 34.2239 20.3399C33.3975 22.8745 31.8851 25.1813 29.8245 27.0503C27.7639 28.9192 25.2204 30.2909 22.4259 31.0404C19.6313 31.79 16.6744 31.8935 13.8245 31.3416ZM11.8546 28.2484C12.8328 28.6156 13.8576 28.8837 14.9291 29.0527L10.9677 25.4599C11.154 26.43 11.4496 27.3595 11.8546 28.2484ZM18.8797 29.1892C19.951 29.0973 21.0081 28.8995 22.0321 28.5994L11.7551 19.2808C11.3938 20.1638 11.1274 21.0764 10.9596 22.0059L18.8797 29.1892ZM24.6766 27.5512C25.4757 27.145 26.2264 26.677 26.9288 26.1472L14.5609 14.9323C13.9734 15.5619 13.4456 16.2354 12.9833 16.9457L24.6766 27.5512ZM28.8288 24.4215C29.4111 23.7877 29.9271 23.1077 30.3768 22.3813L18.6862 11.7733C17.9021 12.1925 17.1586 12.6711 16.4636 13.2041L28.8261 24.4215H28.8288ZM31.5324 19.9804C31.8603 19.0671 32.0771 18.1149 32.1828 17.1236L24.2628 9.9403C23.2236 10.0963 22.222 10.3368 21.2581 10.6618L31.5324 19.9828V19.9804ZM32.0323 13.5405C31.8488 12.5846 31.5515 11.6496 31.1454 10.752C30.1557 10.3838 29.1248 10.114 28.0709 9.94762L32.0323 13.5405Z" fill="white"/>
</g>
<defs>
<clipPath id="clip0_715_1381">
<rect width="43" height="39" fill="white"/>
</clipPath>
</defs>
</svg>
