<svg width="151" height="48" viewBox="0 0 151 48" fill="none" xmlns="http://www.w3.org/2000/svg">
<mask id="mask0_807_1830" style="mask-type:alpha" maskUnits="userSpaceOnUse" x="-176" y="0" width="327" height="191">
<rect x="-176" width="327" height="190.904" rx="20" fill="url(#paint0_linear_807_1830)"/>
</mask>
<g mask="url(#mask0_807_1830)">
<g opacity="0.07">
<path d="M65.4332 46.8906H53.2012L60.852 0.834961H73.0834L65.4332 46.8906Z" fill="white"/>
<path d="M109.776 1.96077C107.363 1.0289 103.536 0 98.8046 0C86.7251 0 78.2188 6.27108 78.1666 15.2368C78.0663 21.8517 84.2569 25.5258 88.887 27.7314C93.6194 29.9853 95.2281 31.4563 95.2281 33.4653C95.1799 36.5507 91.404 37.9729 87.8823 37.9729C82.9987 37.9729 80.382 37.2397 76.4054 35.5231L74.7947 34.7872L73.083 45.1257C75.9519 46.3982 81.2375 47.5273 86.7251 47.5768C99.5598 47.5768 107.916 41.4028 108.015 31.8483C108.063 26.6055 104.795 22.5883 97.7471 19.3055C93.4689 17.1983 90.8488 15.7773 90.8488 13.6212C90.899 11.6611 93.0649 9.65342 97.8943 9.65342C101.871 9.55509 104.793 10.4857 107.006 11.4169L108.112 11.9059L109.776 1.96077Z" fill="white"/>
<path fill-rule="evenodd" clip-rule="evenodd" d="M131.67 0.834961H141.131L151 46.8899H139.674C139.674 46.8899 138.565 41.5983 138.214 39.9813H122.509C122.055 41.2056 119.942 46.8899 119.942 46.8899H107.107L125.277 4.65622C126.535 1.6672 128.752 0.834961 131.67 0.834961ZM130.916 17.6887C130.916 17.6887 127.04 27.9289 126.032 30.5747H136.2C135.697 28.2721 133.38 17.2479 133.38 17.2479L132.525 13.2794C132.165 14.3013 131.645 15.7062 131.294 16.6538C131.056 17.2962 130.895 17.7285 130.916 17.6887Z" fill="white"/>
<path d="M42.984 0.834961L31.0048 32.2405L29.6958 25.8711C27.4811 18.5216 20.5353 10.5366 12.7842 6.56619L23.7567 46.8417H36.6918L55.9184 0.834961H42.984V0.834961Z" fill="white"/>
<path d="M19.8815 0.834961H0.201337L0 1.76553C15.3518 5.58744 25.519 14.8 29.6962 25.873L25.4179 4.70636C24.7136 1.76488 22.5491 0.93199 19.8815 0.834961Z" fill="white"/>
</g>
</g>
<defs>
<linearGradient id="paint0_linear_807_1830" x1="-208.175" y1="221.925" x2="119.506" y2="-32.8668" gradientUnits="userSpaceOnUse">
<stop stop-color="#1E1D1D"/>
<stop offset="1" stop-color="#535353"/>
</linearGradient>
</defs>
</svg>
