<svg width="35" height="36" viewBox="0 0 35 36" fill="none" xmlns="http://www.w3.org/2000/svg">
<path d="M10.5625 3.31152C8.35336 3.31152 6.5625 5.10238 6.5625 7.31152V28.0097C6.5625 30.2189 8.35336 32.0097 10.5625 32.0097H24.4375C26.6466 32.0097 28.4375 30.2189 28.4375 28.0097V11.0626C28.4375 10.764 28.3196 10.4774 28.1094 10.2653L21.5469 3.64266C21.3369 3.43074 21.0509 3.31152 20.7526 3.31152H10.5625ZM8.75 9.51908C8.75 7.30994 10.5409 5.51908 12.75 5.51908H16.3762C18.205 5.51908 19.6875 7.01672 19.6875 8.84552C19.6875 10.6577 21.1566 12.1417 22.9688 12.1417C24.7809 12.1417 26.25 13.6108 26.25 15.423V25.8022C26.25 28.0113 24.4591 29.8022 22.25 29.8022H12.75C10.5409 29.8022 8.75 28.0113 8.75 25.8022V9.51908ZM21.875 9.09747C21.875 8.3502 22.7801 7.97773 23.306 8.50853C23.8294 9.03672 23.4553 9.93418 22.7117 9.93418C22.2496 9.93418 21.875 9.55958 21.875 9.09747ZM12.0413 9.93418C11.4317 9.93418 10.9375 10.4284 10.9375 11.038C10.9375 11.6476 11.4317 12.1417 12.0413 12.1417H16.3962C17.0058 12.1417 17.5 11.6476 17.5 11.038C17.5 10.4284 17.0058 9.93418 16.3962 9.93418H12.0413ZM12.0413 14.3493C11.4317 14.3493 10.9375 14.8435 10.9375 15.4531C10.9375 16.0627 11.4317 16.5568 12.0413 16.5568H22.9587C23.5683 16.5568 24.0625 16.0627 24.0625 15.4531C24.0625 14.8435 23.5683 14.3493 22.9587 14.3493H12.0413ZM14.7656 17.6606C13.7812 17.6606 13.0156 18.3229 12.5781 19.0955C12.1406 19.8682 12.0312 20.8616 12.0312 21.9653C12.0312 22.3931 12.1225 22.8209 12.2166 23.2486C12.3038 23.645 12.0924 24.0443 11.7185 24.2021C11.3213 24.3697 10.9375 24.7431 10.9375 25.1742V25.4974C10.9375 26.107 11.4343 26.6107 12.0376 26.5235C12.1947 26.5008 12.3494 26.4732 12.5006 26.4405C12.8633 26.3622 13.192 26.5584 13.4531 26.822C13.8906 27.2635 14.5469 27.5946 15.3125 27.5946C17.0489 27.5946 18.1392 26.3993 18.9039 25.5181C18.916 25.5043 18.926 25.489 18.9344 25.4727C18.9662 25.4108 18.9981 25.358 19.0299 25.3113C19.1 25.2089 19.2586 25.2728 19.3401 25.3664C19.3499 25.3776 19.3627 25.3939 19.3694 25.4072C19.4755 25.6212 19.5848 25.8353 19.7969 26.0493C20.0156 26.2701 20.4531 26.4908 20.7812 26.4908C21.4375 26.4908 21.875 26.0493 22.0938 25.8286C22.3125 25.6078 22.5312 25.2767 22.75 25.0559C22.8404 24.9647 22.9262 24.8781 23.0092 24.7982C23.4485 24.3756 23.9531 23.7891 23.9531 23.1795V22.9459C23.9531 22.4653 23.5568 22.0646 23.0928 22.1898C22.3521 22.3896 21.757 22.8232 21.3364 23.2571C21.2566 23.3395 21.0931 23.2836 21.0171 23.1977C21.0084 23.1879 20.997 23.1735 20.9912 23.1618C20.8847 22.9468 20.7754 22.7291 20.5625 22.4069C20.3437 22.0757 20.0156 22.0757 19.6875 22.0757C18.8125 22.0757 18.4844 22.6276 18.1562 22.9587C17.9345 23.1825 17.7128 23.4567 17.5248 23.7472C17.3477 24.0209 17.1782 24.3021 16.958 24.5424C16.4612 25.0846 16.0367 25.3871 15.3125 25.3871C15.2031 25.3871 15.2031 25.2767 15.0938 25.2767C15.2575 25.2767 15.3823 25.1101 15.5055 25.0023C16.6191 24.0285 17.5 22.7529 17.5 21.0823C17.5 20.1993 17.2812 19.4267 16.8438 18.7644C16.4062 18.1021 15.6406 17.6606 14.7656 17.6606ZM14.5469 20.1993C14.6329 20.0258 14.8565 19.7871 14.9946 19.9229C15.0275 19.9552 15.0531 20.0068 15.0938 20.0889C15.2031 20.3097 15.3125 20.6408 15.3125 21.1927C15.3125 21.5513 15.2163 21.91 15.0412 22.251C14.8699 22.5848 14.2188 22.4509 14.2188 22.0757C14.2188 21.1927 14.3281 20.5304 14.5469 20.1993Z" fill="#6B6B6B"/>
</svg>
