<svg width="102" height="102" viewBox="0 0 102 102" fill="none" xmlns="http://www.w3.org/2000/svg">
<path d="M86.0625 92.4375H41.4375C37.9312 92.4375 35.0625 89.5687 35.0625 86.0625V73.3125H41.4375V86.0625H86.0625V41.4375H73.3125V35.0625H86.0625C89.5687 35.0625 92.4375 37.9312 92.4375 41.4375V86.0625C92.4375 89.5687 89.5687 92.4375 86.0625 92.4375Z" fill="#5846DF"/>
<path d="M60.5625 47.8125V60.5625H47.8125V66.9375H66.9375V47.8125H60.5625ZM54.1875 35.0625H35.0625V54.1875H41.4375V41.4375H54.1875V35.0625Z" fill="#5846DF"/>
<path d="M15.9375 9.5625H60.5625C64.0687 9.5625 66.9375 12.4312 66.9375 15.9375V28.6875H60.5625V15.9375H15.9375V60.5625H28.6875V66.9375H15.9375C12.4312 66.9375 9.5625 64.0687 9.5625 60.5625V15.9375C9.5625 12.4312 12.4312 9.5625 15.9375 9.5625Z" fill="#5846DF"/>
</svg>
