<svg width="30" height="30" viewBox="0 0 30 30" fill="none" xmlns="http://www.w3.org/2000/svg">
<path d="M14.9998 3.125C16.4699 3.12455 17.9015 3.59536 19.0844 4.46834C20.2672 5.34131 21.1391 6.57047 21.5721 7.9754C22.005 9.38033 21.9762 10.887 21.4898 12.2744C21.0035 13.6617 20.0852 14.8567 18.8698 15.6838C20.9794 16.4575 22.8091 17.8449 24.1235 19.6674C25.4378 21.4899 26.1766 23.664 26.2448 25.91C26.2512 26.0347 26.2326 26.1593 26.1901 26.2767C26.1477 26.3941 26.0822 26.5019 25.9976 26.5936C25.9129 26.6853 25.8108 26.7593 25.6972 26.811C25.5836 26.8628 25.4608 26.8913 25.336 26.895C25.2113 26.8986 25.087 26.8773 24.9706 26.8323C24.8541 26.7873 24.7479 26.7195 24.658 26.6329C24.5681 26.5463 24.4964 26.4426 24.4472 26.3279C24.3979 26.2132 24.372 26.0898 24.3711 25.965C24.2966 23.5293 23.2767 21.2183 21.5275 19.5218C19.7783 17.8252 17.4373 16.8764 15.0004 16.8764C12.5636 16.8764 10.2226 17.8252 8.47335 19.5218C6.72414 21.2183 5.70425 23.5293 5.62982 25.965C5.62236 26.2136 5.51643 26.4491 5.33534 26.6197C5.15425 26.7902 4.91283 26.8818 4.66419 26.8744C4.41555 26.8669 4.18006 26.761 4.00952 26.5799C3.83898 26.3988 3.74736 26.1574 3.75482 25.9087C3.82325 23.663 4.56219 21.4891 5.87652 19.6669C7.19085 17.8446 9.02044 16.4574 11.1298 15.6838C9.91443 14.8567 8.99617 13.6617 8.50982 12.2744C8.02347 10.887 7.99465 9.38033 8.42758 7.9754C8.86051 6.57047 9.7324 5.34131 10.9153 4.46834C12.0981 3.59536 13.5297 3.12455 14.9998 3.125ZM9.99982 10C9.99982 11.3261 10.5266 12.5979 11.4643 13.5355C12.402 14.4732 13.6737 15 14.9998 15C16.3259 15 17.5977 14.4732 18.5354 13.5355C19.473 12.5979 19.9998 11.3261 19.9998 10C19.9998 8.67392 19.473 7.40215 18.5354 6.46447C17.5977 5.52678 16.3259 5 14.9998 5C13.6737 5 12.402 5.52678 11.4643 6.46447C10.5266 7.40215 9.99982 8.67392 9.99982 10Z" fill="white"/>
</svg>
