<svg width="30" height="30" viewBox="0 0 30 30" fill="none" xmlns="http://www.w3.org/2000/svg">
<path d="M19.6875 0L30 5.19941V16.7947L28.125 15.8493V7.31167L20.625 11.0931V14.904L18.75 15.8493V11.0931L11.25 7.31167V10.6647L9.375 9.71935V5.19941L19.6875 0ZM19.6875 9.45347L22.2803 8.13885L15.498 4.22452L12.4072 5.79025L19.6875 9.45347ZM24.3018 7.13442L26.9678 5.79025L19.6875 2.11226L17.5049 3.22009L24.3018 7.13442ZM16.875 16.7947L15 17.74V17.7253L9.375 20.5613V27.2821L15 24.4313V26.5583L8.4375 29.8671L0 25.5982V15.613L8.4375 11.3589L16.875 15.613V16.7947ZM7.5 27.2821V20.5613L1.875 17.7253V24.4313L7.5 27.2821ZM8.4375 18.9217L13.8428 16.2038L8.4375 13.4712L3.03223 16.2038L8.4375 18.9217ZM16.875 18.9069L23.4375 15.5982L30 18.9069V26.6913L23.4375 30L16.875 26.6913V18.9069ZM22.5 27.4151V22.9099L18.75 21.0192V25.5244L22.5 27.4151ZM28.125 25.5244V21.0192L24.375 22.9099V27.4151L28.125 25.5244ZM23.4375 21.2703L26.9678 19.483L23.4375 17.7105L19.9072 19.483L23.4375 21.2703Z" fill="white"/>
</svg>
