<svg width="15" height="13" viewBox="0 0 15 13" fill="none" xmlns="http://www.w3.org/2000/svg">
<path d="M1.53328 4.30039C1.70908 4.14807 1.9475 4.0625 2.19609 4.0625C2.44468 4.0625 2.68309 4.14807 2.8589 4.30039L7.49953 8.32226L12.1402 4.30039C12.317 4.15239 12.5538 4.07049 12.7996 4.07234C13.0454 4.07419 13.2805 4.15964 13.4544 4.31029C13.6282 4.46093 13.7268 4.66472 13.7289 4.87775C13.731 5.09079 13.6365 5.29602 13.4658 5.44926L8.16234 10.0456C7.98653 10.1979 7.74812 10.2835 7.49953 10.2835C7.25094 10.2835 7.01252 10.1979 6.83671 10.0456L1.53328 5.44926C1.35752 5.2969 1.25879 5.09027 1.25879 4.87483C1.25879 4.65938 1.35752 4.45276 1.53328 4.30039Z" fill="white"/>
</svg>
