<svg width="25" height="25" viewBox="0 0 25 25" fill="none" xmlns="http://www.w3.org/2000/svg">
<path d="M18.3476 16.159C19.8605 14.0945 20.5381 11.5349 20.2448 8.9923C19.9516 6.44968 18.7091 4.11154 16.766 2.44565C14.8229 0.779764 12.3224 -0.0910106 9.76483 0.00753734C7.20725 0.106085 4.78119 1.16669 2.97202 2.97716C1.16284 4.78763 0.103978 7.21444 0.00725992 9.77209C-0.0894579 12.3297 0.783106 14.8296 2.45038 16.7715C4.11766 18.7135 6.45669 19.9542 8.99952 20.2457C11.5423 20.5371 14.1014 19.8576 16.1648 18.3433H16.1633C16.2091 18.4058 16.2601 18.4657 16.3164 18.5229L22.3318 24.5383C22.6248 24.8315 23.0222 24.9963 23.4367 24.9964C23.8511 24.9966 24.2487 24.8321 24.5419 24.5391C24.835 24.2461 24.9998 23.8487 25 23.4342C25.0001 23.0198 24.8356 22.6222 24.5426 22.329L18.5272 16.3137C18.4714 16.2571 18.4113 16.2064 18.3476 16.159ZM18.7507 10.153C18.7507 11.2815 18.5284 12.3989 18.0965 13.4415C17.6647 14.4841 17.0317 15.4314 16.2337 16.2294C15.4357 17.0274 14.4884 17.6604 13.4458 18.0922C12.4032 18.5241 11.2858 18.7464 10.1573 18.7464C9.02875 18.7464 7.9113 18.5241 6.8687 18.0922C5.8261 17.6604 4.87877 17.0274 4.08079 16.2294C3.28282 15.4314 2.64984 14.4841 2.21798 13.4415C1.78612 12.3989 1.56384 11.2815 1.56384 10.153C1.56384 7.87384 2.46922 5.68808 4.0808 4.0765C5.69237 2.46492 7.87814 1.55954 10.1573 1.55954C12.4364 1.55954 14.6221 2.46492 16.2337 4.0765C17.8453 5.68808 18.7507 7.87384 18.7507 10.153Z" fill="#50555C"/>
</svg>
