<svg width="35" height="35" viewBox="0 0 35 35" fill="none" xmlns="http://www.w3.org/2000/svg">
<path d="M13.1253 3.58491V6.68241C10.6183 7.70039 8.54295 9.55781 7.25416 11.937C5.96538 14.3161 5.54328 17.0691 6.06007 19.7251C6.57686 22.3811 8.00044 24.7749 10.0873 26.4973C12.1741 28.2196 14.7945 29.1633 17.5003 29.167C19.8248 29.1672 22.0965 28.4733 24.0241 27.1742C25.9517 25.8751 27.4475 24.03 28.3197 21.8753H31.4157C29.5578 27.7918 24.0307 32.0837 17.5003 32.0837C9.44595 32.0837 2.91699 25.5547 2.91699 17.5003C2.91699 10.9699 7.20887 5.44283 13.1253 3.58491ZM17.5003 2.91699C25.5547 2.91699 32.0837 9.44595 32.0837 17.5003C32.0837 17.9932 32.0589 18.4789 32.0107 18.9587H16.042V2.98991C16.5218 2.94178 17.0074 2.91699 17.5003 2.91699ZM18.9587 5.92408V16.042H29.0766C28.752 13.4718 27.5816 11.0827 25.7498 9.25088C23.918 7.41906 21.5288 6.24868 18.9587 5.92408Z" fill="#6B6B6B"/>
</svg>
