<svg width="25" height="25" viewBox="0 0 25 25" fill="none" xmlns="http://www.w3.org/2000/svg">
<path d="M12.5 0C5.6 0 0 5.6 0 12.5C0 19.4 5.6 25 12.5 25C19.4 25 25 19.4 25 12.5C25 5.6 19.4 0 12.5 0ZM13.75 21.25H11.25V18.75H13.75V21.25ZM16.3375 11.5625L15.2125 12.7125C14.3125 13.625 13.75 14.375 13.75 16.25H11.25V15.625C11.25 14.25 11.8125 13 12.7125 12.0875L14.2625 10.5125C14.725 10.0625 15 9.4375 15 8.75C15 7.375 13.875 6.25 12.5 6.25C11.125 6.25 10 7.375 10 8.75H7.5C7.5 5.9875 9.7375 3.75 12.5 3.75C15.2625 3.75 17.5 5.9875 17.5 8.75C17.5 9.85 17.05 10.85 16.3375 11.5625Z" fill="white"/>
</svg>
