<svg width="24" height="24" viewBox="0 0 24 24" fill="none" xmlns="http://www.w3.org/2000/svg">
<path d="M8.28566 17.0001L11.8366 13.4001L15.3876 17.0001L16.7685 15.6001L13.2176 12.0001L16.7685 8.40015L15.3876 7.00015L11.8366 10.6001L8.28566 7.00015L6.90472 8.40015L10.4557 12.0001L6.90472 15.6001L8.28566 17.0001ZM11.8366 22.0001C10.4721 22.0001 9.18984 21.7375 7.98974 21.2121C6.78965 20.6868 5.74573 19.9745 4.85798 19.0751C3.97024 18.1751 3.26761 17.1168 2.75009 15.9001C2.23256 14.6835 1.97347 13.3835 1.97282 12.0001C1.97282 10.6168 2.23191 9.31682 2.75009 8.10015C3.26826 6.88349 3.9709 5.82516 4.85798 4.92516C5.74573 4.02516 6.78965 3.31283 7.98974 2.78816C9.18984 2.2635 10.4721 2.00083 11.8366 2.00016C13.2011 2.00016 14.4834 2.26283 15.6835 2.78816C16.8836 3.31349 17.9275 4.02583 18.8153 4.92516C19.703 5.82516 20.406 6.88349 20.9242 8.10015C21.4423 9.31682 21.7011 10.6168 21.7004 12.0001C21.7004 13.3835 21.4414 14.6835 20.9232 15.9001C20.405 17.1168 19.7024 18.1751 18.8153 19.0751C17.9275 19.9751 16.8836 20.6878 15.6835 21.2131C14.4834 21.7385 13.2011 22.0008 11.8366 22.0001ZM11.8366 20.0001C14.0396 20.0001 15.9055 19.2251 17.4343 17.6751C18.9632 16.1251 19.7277 14.2335 19.7277 12.0001C19.7277 9.76682 18.9632 7.87515 17.4343 6.32516C15.9055 4.77516 14.0396 4.00016 11.8366 4.00016C9.63371 4.00016 7.76781 4.77516 6.23892 6.32516C4.71003 7.87515 3.94558 9.76682 3.94558 12.0001C3.94558 14.2335 4.71003 16.1251 6.23892 17.6751C7.76781 19.2251 9.63371 20.0001 11.8366 20.0001Z" fill="#FF6C52"/>
</svg>
