<svg width="233" height="247" viewBox="0 0 233 247" fill="none" xmlns="http://www.w3.org/2000/svg">
<path fill-rule="evenodd" clip-rule="evenodd" d="M95.2008 140.443L91.443 138.289C91.2498 138.178 91.0137 138.207 90.8068 138.365C90.6 138.524 90.4814 138.768 90.4877 139.022L90.9289 157.28C90.9339 157.489 91.0192 157.652 91.1743 157.749C91.3295 157.846 91.5113 157.85 91.6977 157.761L108.831 149.575C109.064 149.464 109.229 149.236 109.27 148.97C109.311 148.704 109.216 148.475 109.017 148.361L105.526 146.361C117.637 125.23 108.784 110.949 96.1446 111.86C105.116 121.513 99.4637 133.005 95.2008 140.443Z" fill="white"/>
<path fill-rule="evenodd" clip-rule="evenodd" d="M87.3062 111.748L91.064 113.902C91.2573 114.012 91.4879 113.993 91.6855 113.851C91.8832 113.708 91.9914 113.483 91.9768 113.243L90.9382 96.0275C90.9263 95.8304 90.8372 95.6743 90.6817 95.5775C90.5263 95.4809 90.3478 95.4707 90.1678 95.5485L73.6325 102.692C73.4074 102.789 73.2531 102.998 73.2217 103.247C73.1904 103.497 73.2911 103.715 73.4899 103.829L76.9808 105.83C65.8016 125.335 74.9603 139.083 87.3289 138.644C78.2081 129.252 83.3713 118.614 87.3062 111.748Z" fill="white"/>
</svg>
