<svg width="45" height="45" viewBox="0 0 45 45" fill="none" xmlns="http://www.w3.org/2000/svg">
<g clip-path="url(#clip0_139_158)">
<path d="M40 7.5H5C4.33696 7.5 3.70107 7.76339 3.23223 8.23223C2.76339 8.70107 2.5 9.33696 2.5 10V35C2.5 35.663 2.76339 36.2989 3.23223 36.7678C3.70107 37.2366 4.33696 37.5 5 37.5H40C40.663 37.5 41.2989 37.2366 41.7678 36.7678C42.2366 36.2989 42.5 35.663 42.5 35V10C42.5 9.33696 42.2366 8.70107 41.7678 8.23223C41.2989 7.76339 40.663 7.5 40 7.5ZM38.075 35H7.075L15.825 25.95L14.025 24.2125L5 33.55V11.9L20.5375 27.3625C21.0059 27.8281 21.6395 28.0895 22.3 28.0895C22.9605 28.0895 23.5941 27.8281 24.0625 27.3625L40 11.5125V33.3875L30.8 24.1875L29.0375 25.95L38.075 35ZM6.6375 10H37.975L22.3 25.5875L6.6375 10Z" fill="white"/>
</g>
<defs>
<clipPath id="clip0_139_158">
<rect width="45" height="45" fill="white"/>
</clipPath>
</defs>
</svg>
