<svg width="100" height="60" viewBox="0 0 100 60" fill="none" xmlns="http://www.w3.org/2000/svg">
<path d="M92.1875 0C87.8719 0 84.3751 3.72146 84.3751 8.31053C84.3751 9.25294 84.5548 10.1422 84.825 10.9865L65.7812 28.4303C64.4453 27.2984 62.7781 26.5937 60.9375 26.5937C58.8142 26.5937 56.8938 27.5012 55.4875 28.9639L40.5703 21.019C40.2798 16.7092 36.9376 13.2968 32.8125 13.2968C28.4985 13.2968 25 17.0183 25 21.6074C25 22.8639 25.2812 24.0424 25.75 25.1094L10.5406 43.7649C9.6875 43.4258 8.77656 43.2148 7.8125 43.2148C3.49844 43.2148 0 46.9362 0 51.5253C0 56.1144 3.49844 59.8358 7.8125 59.8358C12.1266 59.8358 15.625 56.1144 15.625 51.5253C15.625 50.42 15.4125 49.368 15.0438 48.4039L30.5 29.5057C31.2359 29.7484 32.0016 29.9179 32.8125 29.9179C35.0859 29.9179 37.114 28.8675 38.5421 27.217L53.1327 34.999C53.1844 39.5432 56.653 43.2148 60.9375 43.2148C65.2532 43.2148 68.75 39.4933 68.75 34.9042C68.75 34.7563 68.7172 34.6183 68.7094 34.4721L89.0312 15.9014C89.9984 16.3568 91.0608 16.6211 92.1875 16.6211C96.5032 16.6211 100 12.9013 100 8.31053C100 3.72146 96.5031 0 92.1875 0Z" fill="#5846DF"/>
</svg>
