<svg width="35" height="36" viewBox="0 0 35 36" fill="none" xmlns="http://www.w3.org/2000/svg">
<path d="M11.6663 17.6604H23.333V20.6038H11.6663V17.6604ZM14.583 29.434H8.74967V5.88676H18.958V13.2453H26.2497V17.8076L29.1663 14.8641V11.7736L20.4163 2.94336H8.74967C7.97613 2.94336 7.23426 3.25347 6.68728 3.80546C6.1403 4.35746 5.83301 5.10612 5.83301 5.88676V29.434C5.83301 30.2146 6.1403 30.9633 6.68728 31.5153C7.23426 32.0673 7.97613 32.3774 8.74967 32.3774H14.583V29.434ZM11.6663 26.4906H17.6455L18.958 25.1661V23.5472H11.6663V26.4906ZM29.458 19.1321C29.6038 19.1321 29.8955 19.2793 30.0413 19.4264L31.9372 21.3396C32.2288 21.634 32.2288 22.2227 31.9372 22.517L30.4788 23.9887L27.4163 20.8981L28.8747 19.4264C29.0205 19.2793 29.1663 19.1321 29.458 19.1321ZM29.458 24.8717L20.5622 33.8491H17.4997V30.7585L26.3955 21.7811L29.458 24.8717Z" fill="#6B6B6B"/>
</svg>
