<svg width="39" height="49" viewBox="0 0 39 49" fill="none" xmlns="http://www.w3.org/2000/svg">
<path d="M17.2011 3.09261C16.8998 3.09127 16.5977 3.09165 16.2947 3.09328C14.8362 3.1018 13.3544 3.14994 11.86 3.21961L12.2924 5.60194C13.8486 5.38087 15.5548 5.21626 17.2608 5.13396C18.1851 5.08936 19.1037 5.06582 19.9948 5.07175C22.668 5.08926 25.0935 5.3713 26.6804 6.14382L27.3589 6.47437L27.056 7.30556C24.8424 13.3813 24.3304 19.2428 24.6773 24.994C24.8485 18.1686 27.1066 12.098 30.071 4.3156C26.0373 3.47341 21.72 3.11146 17.2011 3.09251V3.09261ZM19.3365 6.80493C18.6708 6.8056 17.9921 6.82254 17.3135 6.85527C14.1392 7.0084 10.976 7.47639 8.91444 8.0129C11.2173 13.3798 13.0803 18.7591 14.2833 24.0032C14.4329 23.9969 14.5827 23.9983 14.7322 24.0075C15.0383 24.0263 15.341 24.0785 15.6368 24.1596C14.4123 19.2408 13.0176 14.7042 11.2838 10.1744L10.8921 9.151L11.7822 8.95309C14.0183 8.45562 16.3263 8.26307 18.523 8.2622C18.6694 8.2622 18.8155 8.26287 18.9608 8.2645C20.3566 8.27981 21.7018 8.37054 22.9481 8.50711L23.7901 8.59946L23.5445 9.61554C22.1201 15.5073 21.8411 21.8347 22.6465 27.8548C22.6599 27.8704 22.6734 27.8859 22.6865 27.9017C22.977 27.7739 23.2487 27.6435 23.502 27.5042C22.8732 21.0544 23.1518 14.4002 25.4999 7.48299C24.1896 7.06352 22.1921 6.84427 19.9973 6.80981C19.777 6.80639 19.5568 6.8047 19.3365 6.80493ZM30.3772 7.5117C28.0193 13.7856 26.3445 18.8133 26.07 24.2409C27.5963 17.8477 30.5465 12.1167 33.9083 8.43476C32.7414 8.06904 31.5634 7.76112 30.3772 7.5117ZM7.90951 9.28498C6.48052 9.65516 5.0846 10.1251 3.73438 10.7743C4.39143 11.4902 5.57926 12.8219 7.02043 14.5918C7.68373 13.734 8.36022 12.8866 9.0658 12.116C8.69209 11.1648 8.30661 10.221 7.90951 9.28498ZM18.7277 10.001C17.6902 9.99472 16.6282 10.032 15.5624 10.1248C15.4506 11.4342 14.8342 12.6592 14.098 13.8639C15.2734 17.3541 16.2886 20.9156 17.2025 24.6969C18.6021 25.2156 19.9869 25.8288 21.1086 26.5635C20.6919 22.5001 20.7489 18.3366 21.2899 14.2649C20.3084 12.9911 19.7971 11.5766 19.7561 10.0214C19.4134 10.0099 19.0705 10.0031 18.7277 10.001ZM32.5923 12.5836C30.7086 15.3877 29.0487 18.8997 27.9177 22.7197C29.9944 19.0081 32.5481 16.1131 35.2665 14.0681C34.3809 13.557 33.4894 13.0621 32.5923 12.5836ZM9.68439 13.7281C8.57274 14.9902 7.47434 16.5051 6.33046 17.9483C8.78998 19.785 10.8849 21.96 12.5938 24.4236C12.6999 24.3733 12.8071 24.328 12.9148 24.2867C12.1152 20.8322 11.0193 17.2972 9.68439 13.7281ZM27.4619 25.6673C26.2129 27.561 25.0371 28.5608 23.4179 29.3585C23.6001 30.2409 23.3296 31.2539 22.707 32.0287C22.3407 32.4844 21.8805 33.0038 21.2076 33.3413C21.3047 33.4135 21.4038 33.4814 21.5047 33.5449C22.4465 34.1354 24.1103 33.9449 25.656 33.0617C27.197 32.1812 28.5736 30.6603 29.0838 29.1196C29.3395 28.2534 29.1569 27.8017 28.7092 27.1393C28.3905 26.6679 27.925 26.1928 27.4619 25.6674V25.6673ZM14.5067 25.7233C13.6905 25.714 12.8616 26.0099 12.1766 26.6574C11.2023 27.5784 10.4513 29.2207 10.4446 32.0105V32.0296L10.4438 32.0487C10.2214 37.9231 10.5657 40.6333 11.2478 42.1038C11.8499 43.4017 12.8512 44.023 14.316 45.1657C14.3858 44.9355 14.4585 44.6523 14.5266 44.295C14.7001 43.3859 14.8436 42.1374 14.9345 40.7564C15.1165 37.9946 15.0899 34.6783 14.7856 32.2919L14.6248 31.0296L15.6163 31.3162C18.0244 32.0123 19.402 32.0945 20.2018 31.9172C21.0018 31.7398 21.2729 31.3887 21.7421 30.8048C22.1831 30.2562 22.1749 30.0588 22.0815 29.75C21.9881 29.4412 21.6131 28.9323 20.977 28.4453C19.7047 27.4714 17.5428 26.5685 15.522 25.8951C15.1906 25.7849 14.8495 25.7272 14.5067 25.7233ZM28.9108 32.3667C28.1481 33.3002 27.2095 34.0664 26.2237 34.6298C24.6254 35.543 22.8673 35.9607 21.4088 35.3526C20.8938 35.5934 20.5947 35.8701 20.4438 36.0991C20.2368 36.4134 20.2238 36.6446 20.294 36.9757C20.3641 37.3069 20.5732 37.7 20.8317 37.9829C21.0901 38.2658 21.3973 38.4128 21.5141 38.4197C25.0785 38.6323 26.6211 37.3471 28.543 35.8565C29.1035 35.4218 29.318 34.5412 29.2643 33.6619C29.2374 33.2222 29.1356 32.8091 29.018 32.5489C28.9888 32.4825 28.9528 32.4212 28.9108 32.3667ZM16.252 33.2372C16.4597 35.6363 16.4632 38.4352 16.3009 40.8985C16.2059 42.3409 16.0591 43.6527 15.8599 44.6965C15.7733 45.1507 15.678 45.5534 15.5629 45.908L26.7371 45.2893C26.6109 44.7008 26.4823 44.1098 26.3538 43.5186C25.9245 43.6981 25.4857 43.8396 25.0406 43.942L25.044 44.0118L24.4105 44.0614C24.0205 44.1202 23.6144 44.1526 23.1931 44.1563L16.8053 44.6549L16.9952 43.5441C17.6005 40.0025 17.6564 36.8842 17.283 33.4729C16.9381 33.4027 16.5944 33.3241 16.2519 33.2372H16.252ZM18.6874 33.6855C18.9881 36.7415 18.9519 39.6583 18.5041 42.7964L19.9715 42.6819C19.7414 42.2553 19.5832 41.774 19.5068 41.2676C19.4081 40.6092 19.463 39.8763 19.8059 39.2703C19.821 39.2434 19.8374 39.2177 19.8536 39.1917C19.454 38.7281 19.1203 38.1331 18.969 37.4189C18.808 36.6587 18.9085 35.7279 19.3877 35.0005C19.5461 34.7603 19.7375 34.5434 19.9623 34.3482C19.7635 34.1491 19.5892 33.9381 19.4387 33.7183C19.2053 33.7203 18.9553 33.7094 18.6874 33.6855ZM28.7928 37.6844C27.0061 39.0485 24.9987 40.3522 21.4491 40.1405C21.3332 40.1334 21.2181 40.1137 21.1049 40.0817C21.011 40.1346 20.9609 40.2019 20.9235 40.268C20.8501 40.3977 20.8068 40.6317 20.8542 40.9487C20.9493 41.583 21.4274 42.278 21.8727 42.343C25.025 42.8037 27.2031 41.5079 28.5256 40.0005C29.135 39.3059 29.1401 38.8617 29.0504 38.3783C29.0055 38.1368 28.9064 37.9027 28.7928 37.6844ZM28.2837 42.3798C28.0721 42.5465 27.8549 42.7016 27.6327 42.8449C27.7584 43.424 27.8844 44.0031 28.0088 44.5823L29.5261 44.2405C29.1346 43.8206 28.8282 43.3835 28.5823 42.9488C28.4725 42.7547 28.3757 42.5659 28.2837 42.3798Z" fill="#5846DF"/>
</svg>
