<svg width="17" height="17" viewBox="0 0 17 17" fill="none" xmlns="http://www.w3.org/2000/svg">
<path d="M16.7613 14.8588L13.6097 11.8726C14.833 10.4155 15.4255 8.56608 15.2652 6.70456C15.1049 4.84304 14.204 3.11093 12.7479 1.8644C11.2917 0.617861 9.39092 -0.0483553 7.43633 0.00273545C5.48174 0.0538262 3.62193 0.818341 2.2393 2.13908C0.856684 3.45982 0.0563482 5.23639 0.00286362 7.1035C-0.0506209 8.97061 0.646811 10.7863 1.95175 12.1773C3.25669 13.5683 5.06996 14.4288 7.0187 14.5819C8.96744 14.7351 10.9035 14.1691 12.4289 13.0005L15.555 15.9868C15.634 16.0628 15.7279 16.1232 15.8315 16.1644C15.935 16.2056 16.046 16.2268 16.1582 16.2268C16.2703 16.2268 16.3813 16.2056 16.4849 16.1644C16.5884 16.1232 16.6823 16.0628 16.7613 15.9868C16.9144 15.8355 17 15.6332 17 15.4228C17 15.2123 16.9144 15.0101 16.7613 14.8588ZM7.66321 13.0005C6.48711 13.0005 5.33742 12.6674 4.35953 12.0432C3.38164 11.4191 2.61947 10.5319 2.16939 9.49399C1.71932 8.45605 1.60156 7.31392 1.831 6.21205C2.06045 5.11018 2.6268 4.09804 3.45842 3.30363C4.29005 2.50923 5.34961 1.96823 6.50311 1.74905C7.65661 1.52988 8.85225 1.64237 9.93882 2.0723C11.0254 2.50223 11.9541 3.23029 12.6075 4.16441C13.2609 5.09853 13.6097 6.19676 13.6097 7.32022C13.6097 8.82674 12.9832 10.2715 11.868 11.3368C10.7528 12.4021 9.24031 13.0005 7.66321 13.0005Z" fill="black" fill-opacity="0.79"/>
</svg>
