<svg width="41" height="31" viewBox="0 0 41 31" fill="none" xmlns="http://www.w3.org/2000/svg">
<path fill-rule="evenodd" clip-rule="evenodd" d="M40.4818 30.3758C40.4408 30.3586 40.3982 30.35 40.3517 30.35C40.3044 30.35 40.2611 30.3586 40.2201 30.3758C40.1791 30.3923 40.1436 30.4158 40.1136 30.4455C40.0837 30.4745 40.06 30.509 40.0427 30.5489C40.0253 30.5881 40.0167 30.6304 40.0167 30.675C40.0167 30.7196 40.0253 30.7619 40.0427 30.8011C40.06 30.8402 40.0837 30.8747 40.1136 30.9045C40.1436 30.9334 40.1791 30.9569 40.2201 30.9742C40.2611 30.9914 40.3044 31 40.3517 31C40.3982 31 40.4408 30.9914 40.4818 30.9742C40.522 30.9569 40.5567 30.9334 40.5874 30.9045C40.6174 30.8747 40.641 30.8402 40.6584 30.8011C40.6757 30.7619 40.6844 30.7196 40.6844 30.675C40.6844 30.6304 40.6757 30.5881 40.6584 30.5489C40.641 30.509 40.6174 30.4745 40.5874 30.4455C40.5567 30.4158 40.522 30.3923 40.4818 30.3758ZM40.3517 30.9289C40.3872 30.9289 40.4203 30.9219 40.4503 30.9086C40.481 30.8952 40.5078 30.8772 40.5307 30.8545C40.5535 30.8318 40.5717 30.8052 40.5851 30.7739C40.5977 30.7433 40.6048 30.7104 40.6048 30.6752C40.6048 30.6399 40.5977 30.6071 40.5851 30.5765C40.5717 30.546 40.5535 30.5186 40.5307 30.4958C40.5078 30.4731 40.481 30.4551 40.4503 30.4418C40.4203 30.4293 40.3872 30.423 40.3517 30.423C40.3162 30.423 40.2823 30.4293 40.2516 30.4418C40.2201 30.4551 40.1925 30.4731 40.1696 30.4958C40.1467 30.5186 40.1286 30.546 40.116 30.5765C40.1026 30.6071 40.0963 30.6399 40.0963 30.6752C40.0963 30.7104 40.1026 30.7433 40.116 30.7739C40.1286 30.8052 40.1467 30.8318 40.1696 30.8545C40.1925 30.8772 40.2201 30.8952 40.2516 30.9086C40.2823 30.9219 40.3162 30.9289 40.3517 30.9289ZM40.4604 30.5491C40.4392 30.5319 40.4092 30.5233 40.3706 30.5233H40.2302V30.8248H40.2949V30.712H40.3249L40.4171 30.8248H40.4943L40.395 30.7112C40.4265 30.7073 40.4502 30.6971 40.4668 30.6815C40.4841 30.665 40.492 30.6447 40.492 30.6196C40.492 30.5898 40.4817 30.5663 40.4604 30.5491ZM40.2949 30.6608V30.5802H40.3698C40.3864 30.5802 40.4005 30.5833 40.4108 30.5904C40.4203 30.5966 40.4258 30.6068 40.4258 30.6201C40.4258 30.6334 40.4203 30.6444 40.4108 30.6507C40.4005 30.6569 40.3864 30.6608 40.3698 30.6608H40.2949ZM9.63619 29.1895C9.63619 28.6146 10.0154 28.1424 10.635 28.1424C11.2271 28.1424 11.6268 28.5943 11.6268 29.1895C11.6268 29.7846 11.2271 30.2365 10.635 30.2365C10.0154 30.2365 9.63619 29.7643 9.63619 29.1895ZM12.3011 27.5534V29.1886V30.8238H11.5853V30.4267C11.3582 30.7212 11.0137 30.906 10.5454 30.906C9.62228 30.906 8.89857 30.1879 8.89857 29.1886C8.89857 28.1901 9.62228 27.4712 10.5454 27.4712C11.0137 27.4712 11.3582 27.656 11.5853 27.9504V27.5534H12.3011ZM36.4916 29.1895C36.4916 28.6146 36.8708 28.1424 37.4904 28.1424C38.0833 28.1424 38.4822 28.5943 38.4822 29.1895C38.4822 29.7846 38.0833 30.2365 37.4904 30.2365C36.8708 30.2365 36.4916 29.7643 36.4916 29.1895ZM39.1573 26.2401V29.1886V30.8238H38.4407V30.4267C38.2136 30.7212 37.8691 30.906 37.4008 30.906C36.4776 30.906 35.7539 30.1879 35.7539 29.1886C35.7539 28.1901 36.4776 27.4712 37.4008 27.4712C37.8691 27.4712 38.2136 27.656 38.4407 27.9504V26.2401H39.1573ZM21.1868 28.1081C21.648 28.1081 21.9444 28.3955 22.0201 28.9014H20.3117C20.3882 28.4292 20.6767 28.1081 21.1868 28.1081ZM19.5615 29.1886C19.5615 28.1689 20.2363 27.4712 21.2012 27.4712C22.1236 27.4712 22.7575 28.1689 22.7646 29.1886C22.7646 29.2841 22.7575 29.3734 22.7504 29.4619H20.3057C20.4089 30.0508 20.8291 30.2631 21.2903 30.2631C21.6207 30.2631 21.9723 30.1393 22.2482 29.9208L22.599 30.4479C22.1993 30.7831 21.7452 30.906 21.2493 30.906C20.2639 30.906 19.5615 30.2286 19.5615 29.1886ZM29.8451 29.1895C29.8451 28.6146 30.2243 28.1424 30.8439 28.1424C31.436 28.1424 31.8357 28.5943 31.8357 29.1895C31.8357 29.7846 31.436 30.2365 30.8439 30.2365C30.2243 30.2365 29.8451 29.7643 29.8451 29.1895ZM32.51 27.5534V29.1886V30.8238H31.7942V30.4267C31.5663 30.7212 31.2226 30.906 30.7543 30.906C29.8312 30.906 29.1074 30.1879 29.1074 29.1886C29.1074 28.1901 29.8312 27.4712 30.7543 27.4712C31.2226 27.4712 31.5663 27.656 31.7942 27.9504V27.5534H32.51ZM25.8021 29.1886C25.8021 30.1808 26.4974 30.906 27.5586 30.906C28.0545 30.906 28.3848 30.7964 28.7427 30.516L28.399 29.9412C28.1301 30.1331 27.8479 30.2356 27.5373 30.2356C26.9657 30.2286 26.5455 29.8182 26.5455 29.1886C26.5455 28.5589 26.9657 28.1486 27.5373 28.1415C27.8479 28.1415 28.1301 28.2441 28.399 28.436L28.7427 27.8612C28.3848 27.5808 28.0545 27.4712 27.5586 27.4712C26.4974 27.4712 25.8021 28.1964 25.8021 29.1886ZM34.1634 27.9509C34.3494 27.6635 34.6183 27.4717 35.0314 27.4717C35.1764 27.4717 35.383 27.4991 35.5414 27.5609L35.3207 28.2313C35.1693 28.1694 35.018 28.1491 34.8729 28.1491C34.4046 28.1491 34.1705 28.4498 34.1705 28.9909V30.8243H33.4539V27.5539H34.1634V27.9509ZM15.8416 27.8134C15.497 27.5879 15.0224 27.4712 14.499 27.4712C13.6649 27.4712 13.128 27.8682 13.128 28.5182C13.128 29.0515 13.5277 29.3805 14.264 29.483L14.6023 29.5308C14.9949 29.5856 15.1801 29.6882 15.1801 29.873C15.1801 30.126 14.9184 30.2701 14.4296 30.2701C13.9337 30.2701 13.5758 30.1127 13.3346 29.9279L12.9972 30.4815C13.3898 30.769 13.8856 30.906 14.4225 30.906C15.3733 30.906 15.9243 30.4612 15.9243 29.8386C15.9243 29.2638 15.4907 28.963 14.7741 28.8604L14.4367 28.8119C14.1269 28.7712 13.8785 28.7101 13.8785 28.4908C13.8785 28.2512 14.1127 28.1079 14.5053 28.1079C14.9255 28.1079 15.3323 28.2653 15.5317 28.3882L15.8416 27.8134ZM24.2108 27.9509C24.3961 27.6635 24.6649 27.4717 25.078 27.4717C25.223 27.4717 25.4296 27.4991 25.588 27.5609L25.3673 28.2313C25.2159 28.1694 25.0646 28.1491 24.9195 28.1491C24.4512 28.1491 24.2171 28.4498 24.2171 28.9909V30.8243H23.5013V27.5539H24.2108V27.9509ZM18.9694 27.5534H17.7987V26.5612H17.075V27.5534H16.4072V28.2034H17.075V29.6953C17.075 30.4541 17.3714 30.906 18.2181 30.906C18.5287 30.906 18.8866 30.8105 19.1137 30.6531L18.9071 30.0438C18.6935 30.1667 18.4593 30.2286 18.2733 30.2286C17.9154 30.2286 17.7987 30.0093 17.7987 29.6812V28.2034H18.9694V27.5534ZM8.26586 28.7717V30.8243H7.54214V29.0043C7.54214 28.4498 7.308 28.142 6.81922 28.142C6.34384 28.142 6.01351 28.4435 6.01351 29.0113V30.8243H5.2898L5.2898 29.0043C5.2898 28.4498 5.04935 28.142 4.57397 28.142C4.0844 28.142 3.76748 28.4435 3.76748 29.0113V30.8243H3.04456L3.04456 27.5539H3.76117V27.9572C4.03 27.5742 4.37373 27.4717 4.72534 27.4717C5.22831 27.4717 5.58622 27.6909 5.81327 28.0535C6.11679 27.5946 6.55039 27.4646 6.97058 27.4717C7.76998 27.4787 8.26586 27.9987 8.26586 28.7717Z" fill="#081029"/>
<path fill-rule="evenodd" clip-rule="evenodd" d="M40.7364 19.4706V19.9483H40.6481V19.5873L40.5125 19.899H40.4203L40.2847 19.5881V19.9483H40.1956V19.4706H40.3217L40.466 19.7987L40.611 19.4706H40.7364ZM39.941 19.5516V19.9479H39.8527V19.5516H39.6919V19.471H40.1018V19.5516H39.941Z" fill="white"/>
<path d="M25.4802 22.0037H14.6311V2.63509H25.4802V22.0037Z" fill="#FF5F00"/>
<path d="M15.3257 12.3176C15.3257 8.38865 17.1775 4.8888 20.0614 2.63337C17.9525 0.984077 15.291 -0.000327167 12.3985 -0.000327167C5.55083 -0.000327167 0 5.51453 0 12.3176C0 19.1208 5.55083 24.6356 12.3985 24.6356C15.291 24.6356 17.9525 23.6512 20.0614 22.0019C17.1775 19.7465 15.3257 16.2467 15.3257 12.3176Z" fill="#EB001B"/>
<path d="M40.1114 12.3176C40.1114 19.1208 34.5605 24.6356 27.7128 24.6356C24.8203 24.6356 22.1588 23.6512 20.0492 22.0019C22.9338 19.7465 24.7857 16.2467 24.7857 12.3176C24.7857 8.38865 22.9338 4.8888 20.0492 2.63337C22.1588 0.984077 24.8203 -0.000327167 27.7128 -0.000327167C34.5605 -0.000327167 40.1114 5.51453 40.1114 12.3176Z" fill="#F79E1B"/>
</svg>
