<svg width="24" height="24" viewBox="0 0 24 24" fill="none" xmlns="http://www.w3.org/2000/svg">
<path d="M8.50738 8.50069H4.06866C3.80706 8.50069 3.55617 8.39533 3.37119 8.20777C3.1862 8.02022 3.08228 7.76585 3.08228 7.50061V3.00024C3.08228 2.73501 3.1862 2.48063 3.37119 2.29308C3.55617 2.10553 3.80706 2.00016 4.06866 2.00016C4.33027 2.00016 4.58116 2.10553 4.76614 2.29308C4.95112 2.48063 5.05505 2.73501 5.05505 3.00024V6.50053H8.50738C8.76899 6.50053 9.01988 6.60589 9.20486 6.79345C9.38984 6.981 9.49376 7.23537 9.49376 7.50061C9.49376 7.76585 9.38984 8.02022 9.20486 8.20777C9.01988 8.39533 8.76899 8.50069 8.50738 8.50069Z" fill="#71CFEC"/>
<path d="M20.7145 12.9998C20.4529 12.9998 20.202 12.8944 20.017 12.7069C19.832 12.5193 19.7281 12.265 19.7281 11.9998C19.7289 10.2393 19.1564 8.52781 18.0997 7.13087C17.0429 5.73394 15.5609 4.72966 13.8836 4.2739C12.2064 3.81813 10.4276 3.93635 8.82335 4.61022C7.21911 5.28409 5.87912 6.47592 5.0113 8.00077C4.88023 8.23031 4.66459 8.39767 4.41182 8.46603C4.15904 8.53438 3.88983 8.49814 3.66341 8.36527C3.43699 8.23239 3.27191 8.01378 3.20448 7.75751C3.13706 7.50124 3.17281 7.22831 3.30387 6.99877C4.38914 5.09301 6.06445 3.60362 8.06988 2.76166C10.0753 1.9197 12.2988 1.77225 14.3953 2.34216C16.4919 2.91208 18.3443 4.16751 19.6652 5.9137C20.9861 7.65988 21.7017 9.7992 21.7009 11.9998C21.7009 12.265 21.597 12.5193 21.412 12.7069C21.227 12.8944 20.9761 12.9998 20.7145 12.9998ZM19.6048 21.9997C19.3432 21.9997 19.0923 21.8944 18.9073 21.7069C18.7224 21.5193 18.6184 21.265 18.6184 20.9997V17.4998H15.1661C14.9045 17.4998 14.6536 17.3944 14.4686 17.2069C14.2836 17.0193 14.1797 16.765 14.1797 16.4998C14.1797 16.2345 14.2836 15.9802 14.4686 15.7926C14.6536 15.6051 14.9045 15.4998 15.1661 15.4998H19.6048C19.8664 15.4998 20.1173 15.6051 20.3023 15.7926C20.4873 15.9802 20.5912 16.2345 20.5912 16.4998V20.9997C20.5912 21.265 20.4873 21.5193 20.3023 21.7069C20.1173 21.8944 19.8664 21.9997 19.6048 21.9997Z" fill="#71CFEC"/>
<path d="M11.8366 22.0008C9.22155 21.9976 6.71447 20.943 4.86532 19.0681C3.01618 17.1933 1.97595 14.6514 1.97282 12C1.97282 11.7348 2.07674 11.4804 2.26172 11.2928C2.4467 11.1053 2.69759 10.9999 2.9592 10.9999C3.2208 10.9999 3.47169 11.1053 3.65668 11.2928C3.84166 11.4804 3.94558 11.7348 3.94558 12C3.94483 13.7606 4.51725 15.4722 5.574 16.8693C6.63076 18.2663 8.11277 19.2707 9.79005 19.7265C11.4673 20.1823 13.2461 20.0641 14.8503 19.3902C16.4546 18.7162 17.7946 17.5243 18.6624 15.9993C18.7273 15.8857 18.8136 15.7861 18.9165 15.7062C19.0194 15.6264 19.1367 15.5679 19.2619 15.534C19.387 15.5002 19.5176 15.4917 19.646 15.5089C19.7744 15.5262 19.8982 15.569 20.0103 15.6348C20.1224 15.7006 20.2206 15.7881 20.2994 15.8924C20.3781 15.9967 20.4358 16.1157 20.4692 16.2426C20.5026 16.3695 20.511 16.5018 20.494 16.632C20.4769 16.7622 20.4347 16.8877 20.3698 17.0014C19.5023 18.518 18.258 19.7776 16.7608 20.6548C15.2636 21.532 13.5658 21.9961 11.8366 22.0008Z" fill="#71CFEC"/>
</svg>
