<svg width="30" height="26" viewBox="0 0 30 26" fill="none" xmlns="http://www.w3.org/2000/svg">
<path fill-rule="evenodd" clip-rule="evenodd" d="M15 0C12.8404 0 10.7692 0.595872 9.24217 1.65653C7.71509 2.71719 6.85719 4.15575 6.85719 5.65575C6.85719 7.15574 7.71509 8.59431 9.24217 9.65496C10.7692 10.7156 12.8404 11.3115 15 11.3115C17.1596 11.3115 19.2308 10.7156 20.7578 9.65496C22.2849 8.59431 23.1428 7.15574 23.1428 5.65575C23.1428 4.15575 22.2849 2.71719 20.7578 1.65653C19.2308 0.595872 17.1596 0 15 0ZM9.42861 5.65575C9.42861 4.62943 10.0156 3.64515 11.0604 2.91944C12.1053 2.19373 13.5224 1.78603 15 1.78603C16.4776 1.78603 17.8947 2.19373 18.9396 2.91944C19.9844 3.64515 20.5714 4.62943 20.5714 5.65575C20.5714 6.68206 19.9844 7.66634 18.9396 8.39205C17.8947 9.11777 16.4776 9.52547 15 9.52547C13.5224 9.52547 12.1053 9.11777 11.0604 8.39205C10.0156 7.66634 9.42861 6.68206 9.42861 5.65575ZM15 13.0975C11.0349 13.0975 7.38005 13.7238 4.67321 14.7811C2.0058 15.8242 9.58312e-05 17.403 9.58312e-05 19.3486V19.4701C-0.00161844 20.8536 -0.00333287 22.5896 2.18922 23.8303C3.2675 24.44 4.77778 24.8746 6.81777 25.1603C8.86118 25.4485 11.5269 25.5997 15 25.5997C18.4731 25.5997 21.1371 25.4485 23.1839 25.1603C25.2239 24.8746 26.7325 24.44 27.8125 23.8303C30.005 22.5896 30.0016 20.8536 29.9999 19.4701V19.3486C29.9999 17.403 27.9942 15.8242 25.3285 14.7811C22.6199 13.7238 18.9668 13.0975 15 13.0975ZM2.57151 19.3486C2.57151 18.3353 3.63779 17.2351 5.9332 16.3386C8.18919 15.4575 11.3915 14.8835 15.0017 14.8835C18.6085 14.8835 21.8108 15.4575 24.0668 16.3386C26.3639 17.2351 27.4285 18.3353 27.4285 19.3486C27.4285 20.906 27.3599 21.7824 26.1874 22.4444C25.5531 22.804 24.4902 23.1552 22.6731 23.41C20.8611 23.6648 18.384 23.8137 15 23.8137C11.616 23.8137 9.13718 23.6648 7.32691 23.41C5.50977 23.1552 4.44692 22.804 3.81264 22.4456C2.64008 21.7824 2.57151 20.906 2.57151 19.3486Z" fill="#6B6B6B" fill-opacity="0.5"/>
</svg>
