<svg width="60" height="60" viewBox="0 0 60 60" fill="none" xmlns="http://www.w3.org/2000/svg">
<path d="M30 28.8C28.2 28.8 27 30 27 31.8C27 33 27.9 33.9 28.8 34.2L27.9 38.4H31.8L30.9 34.2C32.1 33.9 32.7 33 32.7 31.8C33 30 31.8 28.8 30 28.8ZM30.3 15.9C28.2 15.9 26.1 17.4 26.1 19.5V24H34.2V19.5C33.9 17.4 32.4 15.9 30.3 15.9ZM30 6L9 15V24C9.3 37.2 17.7 48.9 30 53.7C42.3 48.9 50.7 37.2 51 24V15L30 6ZM42 39C42 40.8 40.8 42 39 42H21C19.2 42 18 40.8 18 39V27C18 25.2 19.2 24 21 24H21.9V19.5C22.2 15.3 25.8 12 30 12C34.2 12 37.8 15.3 38.1 19.5V24H39C40.8 24 42 25.2 42 27V39Z" fill="white"/>
</svg>
