<svg width="35" height="35" viewBox="0 0 35 35" fill="none" xmlns="http://www.w3.org/2000/svg">
<path d="M8.02116 13.1247C8.60132 13.1247 9.15772 12.8942 9.56796 12.484C9.97819 12.0737 10.2087 11.5173 10.2087 10.9372C10.2087 10.357 9.97819 9.80061 9.56796 9.39038C9.15772 8.98014 8.60132 8.74967 8.02116 8.74967C7.441 8.74967 6.8846 8.98014 6.47436 9.39038C6.06413 9.80061 5.83366 10.357 5.83366 10.9372C5.83366 11.5173 6.06413 12.0737 6.47436 12.484C6.8846 12.8942 7.441 13.1247 8.02116 13.1247ZM25.3899 16.8872C25.9149 17.4122 26.2503 18.1413 26.2503 18.958C26.2503 19.7601 25.9295 20.4893 25.3899 21.0143L18.0982 28.3059C17.8278 28.5778 17.5062 28.7936 17.1521 28.9408C16.7979 29.088 16.4182 29.1638 16.0347 29.1638C15.6512 29.1638 15.2715 29.088 14.9173 28.9408C14.5632 28.7936 14.2416 28.5778 13.9712 28.3059L3.77741 18.1122C3.23783 17.5726 2.91699 16.8434 2.91699 16.0413V8.74967C2.91699 7.13092 4.21491 5.83301 5.83366 5.83301H13.1253C13.9274 5.83301 14.6566 6.15384 15.1816 6.67884L25.3899 16.8872ZM19.7462 8.32676L21.2045 6.86842L31.2232 16.8872C31.7628 17.4122 32.0837 18.1559 32.0837 18.958C32.0837 19.7601 31.7628 20.4893 31.2378 21.0143L23.392 28.8601L21.9337 27.4018L30.2607 18.958L19.7462 8.32676Z" fill="#6B6B6B"/>
</svg>
