<svg width="35" height="35" viewBox="0 0 35 35" fill="none" xmlns="http://www.w3.org/2000/svg">
<path d="M13.125 4.375H5.83333C5.02792 4.375 4.375 5.02792 4.375 5.83333V16.0417C4.375 16.8471 5.02792 17.5 5.83333 17.5H13.125C13.9304 17.5 14.5833 16.8471 14.5833 16.0417V5.83333C14.5833 5.02792 13.9304 4.375 13.125 4.375Z" stroke="#191B4F" stroke-width="2" stroke-linecap="round" stroke-linejoin="round"/>
<path d="M29.167 4.375H21.8753C21.0699 4.375 20.417 5.02792 20.417 5.83333V10.2083C20.417 11.0137 21.0699 11.6667 21.8753 11.6667H29.167C29.9724 11.6667 30.6253 11.0137 30.6253 10.2083V5.83333C30.6253 5.02792 29.9724 4.375 29.167 4.375Z" stroke="#191B4F" stroke-width="2" stroke-linecap="round" stroke-linejoin="round"/>
<path d="M29.167 17.5H21.8753C21.0699 17.5 20.417 18.1529 20.417 18.9583V29.1667C20.417 29.9721 21.0699 30.625 21.8753 30.625H29.167C29.9724 30.625 30.6253 29.9721 30.6253 29.1667V18.9583C30.6253 18.1529 29.9724 17.5 29.167 17.5Z" stroke="#191B4F" stroke-width="2" stroke-linecap="round" stroke-linejoin="round"/>
<path d="M13.125 23.333H5.83333C5.02792 23.333 4.375 23.9859 4.375 24.7913V29.1663C4.375 29.9718 5.02792 30.6247 5.83333 30.6247H13.125C13.9304 30.6247 14.5833 29.9718 14.5833 29.1663V24.7913C14.5833 23.9859 13.9304 23.333 13.125 23.333Z" stroke="#191B4F" stroke-width="2" stroke-linecap="round" stroke-linejoin="round"/>
</svg>
