<svg width="92" height="92" viewBox="0 0 92 92" fill="none" xmlns="http://www.w3.org/2000/svg">
<path d="M65.0312 68.2188H42.7188C40.9656 68.2188 39.5312 66.7844 39.5312 65.0312V58.6562H42.7188V65.0312H65.0312V42.7188H58.6562V39.5312H65.0312C66.7844 39.5312 68.2188 40.9656 68.2188 42.7188V65.0312C68.2188 66.7844 66.7844 68.2188 65.0312 68.2188Z" fill="#5846DF"/>
<path d="M52.2812 45.9062V52.2812H45.9062V55.4688H55.4688V45.9062H52.2812ZM49.0938 39.5312H39.5312V49.0938H42.7188V42.7188H49.0938V39.5312Z" fill="#5846DF"/>
<path d="M29.9688 26.7812H52.2812C54.0344 26.7812 55.4688 28.2156 55.4688 29.9688V36.3438H52.2812V29.9688H29.9688V52.2812H36.3438V55.4688H29.9688C28.2156 55.4688 26.7812 54.0344 26.7812 52.2812V29.9688C26.7812 28.2156 28.2156 26.7812 29.9688 26.7812Z" fill="#5846DF"/>
<circle cx="46" cy="46" r="45.5" stroke="#5846DF"/>
</svg>
