<svg width="21" height="21" viewBox="0 0 21 21" fill="none" xmlns="http://www.w3.org/2000/svg">
<path fill-rule="evenodd" clip-rule="evenodd" d="M1.81459 5.99161C1.74966 6.30514 1.74966 6.68269 1.74966 7.43781V8.09405C1.74966 8.45649 2.04347 8.7503 2.40591 8.7503H2.62465C3.59114 8.7503 4.37464 9.53379 4.37464 10.5003C4.37464 11.4668 3.59114 12.2503 2.62465 12.2503H2.40591C2.04347 12.2503 1.74966 12.5441 1.74966 12.9065V13.5628C1.74966 14.3179 1.74966 14.6954 1.81459 15.009C2.06728 16.2292 3.02073 17.1826 4.24093 17.4353C4.55446 17.5002 4.93202 17.5002 5.68713 17.5002H15.3121C16.0672 17.5002 16.4447 17.5002 16.7583 17.4353C17.9785 17.1826 18.9319 16.2292 19.1846 15.009C19.2495 14.6954 19.2495 14.3179 19.2495 13.5628V12.9065C19.2495 12.5441 18.9557 12.2503 18.5933 12.2503H18.3745C17.408 12.2503 16.6245 11.4668 16.6245 10.5003C16.6245 9.53379 17.408 8.7503 18.3745 8.7503H18.5933C18.9557 8.7503 19.2495 8.45649 19.2495 8.09405V7.43781C19.2495 6.68269 19.2495 6.30514 19.1846 5.99161C18.9319 4.77141 17.9785 3.81796 16.7583 3.56527C16.4447 3.50034 16.0672 3.50034 15.3121 3.50034H5.68713C4.93202 3.50034 4.55446 3.50034 4.24093 3.56527C3.02073 3.81796 2.06728 4.77141 1.81459 5.99161ZM10.4519 8.7555C10.3324 8.78187 10.2589 8.97217 10.1118 9.35277C10.0281 9.56921 9.98627 9.67743 9.908 9.75104C9.88605 9.77169 9.86222 9.79007 9.83684 9.80595C9.74638 9.86253 9.63345 9.87303 9.40758 9.89402C9.02524 9.92955 8.83407 9.94732 8.77569 10.0604C8.7636 10.0839 8.75538 10.1092 8.75137 10.1355C8.73201 10.2622 8.87255 10.3949 9.15363 10.6603L9.23169 10.734L9.23169 10.734C9.3631 10.8581 9.42881 10.9201 9.46681 10.9975C9.48961 11.044 9.50489 11.094 9.51206 11.1456C9.52399 11.2316 9.50475 11.3216 9.46627 11.5015L9.45252 11.5659L9.45252 11.5659C9.38351 11.8886 9.34901 12.05 9.39208 12.1294C9.43077 12.2006 9.50204 12.2462 9.58076 12.2501C9.66841 12.2545 9.7919 12.1501 10.0389 11.9412C10.2016 11.8036 10.283 11.7348 10.3733 11.7079C10.4558 11.6834 10.5434 11.6834 10.6259 11.7079C10.7162 11.7348 10.7976 11.8036 10.9603 11.9412L10.9603 11.9412C11.2073 12.1501 11.3308 12.2545 11.4184 12.2501C11.4971 12.2462 11.5684 12.2006 11.6071 12.1294C11.6502 12.05 11.6157 11.8886 11.5467 11.5659L11.5329 11.5015L11.5329 11.5015C11.4944 11.3216 11.4752 11.2316 11.4871 11.1456C11.4943 11.094 11.5096 11.044 11.5324 10.9975C11.5704 10.9201 11.6361 10.8581 11.7675 10.734L11.7675 10.734L11.8456 10.6603C12.1266 10.3949 12.2672 10.2622 12.2478 10.1355C12.2438 10.1092 12.2356 10.0839 12.2235 10.0604C12.1651 9.94732 11.9739 9.92955 11.5916 9.89402C11.3657 9.87303 11.2528 9.86253 11.1623 9.80595C11.137 9.79007 11.1131 9.77169 11.0912 9.75104C11.0129 9.67743 10.9711 9.56921 10.8874 9.35277C10.7403 8.97217 10.6668 8.78187 10.5473 8.7555C10.5158 8.74856 10.4834 8.74856 10.4519 8.7555Z" fill="#081029"/>
</svg>
