<svg width="102" height="96" viewBox="0 0 102 96" fill="none" xmlns="http://www.w3.org/2000/svg">
<g clip-path="url(#clip0_124_47)">
<path d="M100.283 53.72H49.1387C46.3981 53.5212 43.6846 54.3462 41.5856 56.0164C39.4865 57.6866 38.1707 60.0675 37.9229 62.644L37.9187 62.68C38.17 65.2904 39.5122 67.7 41.6504 69.3794C43.7886 71.0588 46.5477 71.8704 49.3214 71.636L49.2832 71.64H100.283C100.604 71.6679 100.928 71.6352 101.235 71.5439C101.543 71.4526 101.828 71.3044 102.074 71.1081C102.319 70.9117 102.521 70.6712 102.667 70.4006C102.813 70.13 102.899 69.8346 102.922 69.532V55.836C102.839 55.2506 102.533 54.7136 102.061 54.3245C101.589 53.9353 100.983 53.7206 100.355 53.72H100.279H100.283ZM49.1387 68.272C47.9366 68.272 46.7616 67.9365 45.7622 67.308C44.7627 66.6795 43.9838 65.7861 43.5238 64.741C43.0638 63.6958 42.9434 62.5457 43.1779 61.4361C43.4124 60.3265 43.9913 59.3073 44.8412 58.5074C45.6912 57.7074 46.7741 57.1626 47.953 56.9419C49.1319 56.7212 50.3539 56.8345 51.4644 57.2674C52.5749 57.7003 53.5241 58.4335 54.1919 59.3741C54.8597 60.3148 55.2162 61.4207 55.2162 62.552V62.568C55.2162 65.72 52.5004 68.272 49.1557 68.272H49.1387ZM14.0039 0V25.616H19.8179V14.672C20.4044 14.808 21.0844 14.896 21.7814 14.92H21.7984C23.8992 14.9147 25.9125 14.1272 27.3984 12.7294C28.8844 11.3317 29.7222 9.43726 29.7289 7.46C29.7148 6.81061 29.6207 6.16496 29.4484 5.536L29.4612 5.596H61.3022C61.1487 6.20213 61.0605 6.82125 61.0387 7.444V7.46C61.0443 9.43726 61.881 11.3321 63.3661 12.7306C64.8513 14.1291 66.8641 14.9177 68.9649 14.924C69.6789 14.9 70.3632 14.812 71.0177 14.66L70.9497 14.672V25.616H76.9039V0H14.0039ZM79.4072 22.504H86.8064C86.2521 20.9885 85.2808 19.6384 83.9914 18.5915C82.702 17.5445 81.1407 16.838 79.4667 16.544L79.4072 16.536V22.504Z" fill="#5846DF"/>
<path d="M48.7517 50.7359H99.4882V36.1879C99.2711 34.0299 98.1617 32.0385 96.3992 30.6431C94.6367 29.2476 92.3622 28.5598 90.066 28.7279H90.0957H9.51575C9.44714 28.6575 9.35331 28.6133 9.25225 28.6039C8.69356 28.3569 8.21529 27.9736 7.86704 27.4939C7.51879 27.0142 7.31325 26.4556 7.27175 25.8759V25.8679C7.33941 25.1485 7.63902 24.4656 8.13046 23.9109C8.6219 23.3561 9.2817 22.9559 10.0215 22.7639L10.047 22.7599V16.4199C4.49225 16.6679 0 24.1279 0 33.4559V88.5439C0.219263 90.6993 1.32817 92.6878 3.08843 94.082C4.84869 95.4762 7.11981 96.1648 9.41375 95.9999H9.384H89.964C92.2481 96.1585 94.5076 95.4705 96.2601 94.0826C98.0126 92.6948 99.1192 90.7171 99.3437 88.5719L99.348 88.5399V73.9919H48.892C40.7022 73.9919 34.0935 68.7679 34.0935 62.4279C34.0935 55.9639 40.698 50.7399 48.756 50.7399L48.7517 50.7359Z" fill="#5846DF"/>
</g>
<defs>
<clipPath id="clip0_124_47">
<rect width="102" height="96" fill="white"/>
</clipPath>
</defs>
</svg>
