<svg width="67" height="84" viewBox="0 0 67 84" fill="none" xmlns="http://www.w3.org/2000/svg">
<path d="M33.4999 0L66.9998 17.9247V23.8995H62.5331C62.5331 24.7086 62.2947 25.4088 61.8178 26.0001C61.3409 26.5914 60.7767 26.887 60.1253 26.887H6.87447C6.22307 26.887 5.65891 26.5914 5.18201 26.0001C4.70511 25.4088 4.46666 24.7086 4.46666 23.8995H0V17.9247L33.4999 0ZM8.93329 29.8744H17.8666V65.7238H22.3332V29.8744H31.2666V65.7238H35.7332V29.8744H44.6665V65.7238H49.1332V29.8744H58.0665V65.7238H60.1253C60.7767 65.7238 61.3409 66.0194 61.8178 66.6107C62.2947 67.202 62.5331 67.9021 62.5331 68.7112V71.6987H4.46666V68.7112C4.46666 67.9021 4.70511 67.202 5.18201 66.6107C5.65891 66.0194 6.22307 65.7238 6.87447 65.7238H8.93329V29.8744ZM64.592 74.6861C65.2434 74.6861 65.8075 74.9818 66.2844 75.573C66.7613 76.1643 66.9998 76.8645 66.9998 77.6736V83.6485H0V77.6736C0 76.8645 0.23845 76.1643 0.71535 75.573C1.19227 74.9818 1.75643 74.6861 2.4078 74.6861H64.592Z" fill="white"/>
</svg>
