<svg width="30" height="26" viewBox="0 0 30 26" fill="none" xmlns="http://www.w3.org/2000/svg">
<path d="M14.9801 0C13.0941 0 11.416 1.09474 10.7922 2.73684H1.61442V5.47368H4.51033L0.129336 15.0526C-0.568652 17.7895 1.61442 19.1579 5.32712 19.1579C9.03982 19.1579 11.3566 17.7895 10.5249 15.0526L6.14392 5.47368H10.7774C11.2674 6.63684 12.2327 7.52632 13.4951 7.97789V23.2632H0.129336V26H29.831V23.2632H16.4652V7.96421C17.7276 7.52632 18.6929 6.63684 19.1681 5.47368H23.8164L19.4354 15.0526C18.7374 17.7895 20.9205 19.1579 24.6332 19.1579C28.3459 19.1579 30.6626 17.7895 29.831 15.0526L25.45 5.47368H28.3459V2.73684H19.1829C18.5443 1.09474 16.8662 0 14.9801 0ZM14.9801 2.73684C15.374 2.73684 15.7518 2.88102 16.0303 3.13764C16.3088 3.39427 16.4652 3.74234 16.4652 4.10526C16.4652 4.46819 16.3088 4.81625 16.0303 5.07288C15.7518 5.32951 15.374 5.47368 14.9801 5.47368C14.5863 5.47368 14.2085 5.32951 13.93 5.07288C13.6515 4.81625 13.4951 4.46819 13.4951 4.10526C13.4951 3.74234 13.6515 3.39427 13.93 3.13764C14.2085 2.88102 14.5863 2.73684 14.9801 2.73684ZM5.32712 9.92105L7.55474 15.0526H3.0995L5.32712 9.92105ZM24.6332 9.92105L26.8608 15.0526H22.4056L24.6332 9.92105Z" fill="white"/>
</svg>
