<svg width="30" height="25" viewBox="0 0 30 25" fill="none" xmlns="http://www.w3.org/2000/svg">
<path d="M25.5 0H4.5C3.30653 0 2.16193 0.415882 1.31802 1.15616C0.474106 1.89643 0 2.90046 0 3.94737V23.6842C0.000458035 23.9174 0.0715332 24.1462 0.205951 24.3474C0.340368 24.5485 0.533301 24.7147 0.765 24.8289C0.989183 24.9404 1.24232 24.9993 1.5 25C1.76923 24.9999 2.03347 24.9363 2.265 24.8158L9 21.2368C9.24895 21.1068 9.53549 21.0429 9.825 21.0526H25.5C26.6935 21.0526 27.8381 20.6367 28.682 19.8965C29.5259 19.1562 30 18.1522 30 17.1053V3.94737C30 2.90046 29.5259 1.89643 28.682 1.15616C27.8381 0.415882 26.6935 0 25.5 0ZM9 11.8421C8.70333 11.8421 8.41332 11.7649 8.16665 11.6204C7.91997 11.4758 7.72771 11.2703 7.61418 11.0298C7.50065 10.7894 7.47094 10.5249 7.52882 10.2696C7.5867 10.0144 7.72956 9.77993 7.93934 9.59591C8.14912 9.4119 8.41639 9.28658 8.70737 9.23581C8.99834 9.18504 9.29994 9.2111 9.57403 9.31068C9.84811 9.41027 10.0824 9.57892 10.2472 9.7953C10.412 10.0117 10.5 10.2661 10.5 10.5263C10.5 10.8753 10.342 11.21 10.0607 11.4567C9.77936 11.7035 9.39782 11.8421 9 11.8421ZM15 11.8421C14.7033 11.8421 14.4133 11.7649 14.1666 11.6204C13.92 11.4758 13.7277 11.2703 13.6142 11.0298C13.5006 10.7894 13.4709 10.5249 13.5288 10.2696C13.5867 10.0144 13.7296 9.77993 13.9393 9.59591C14.1491 9.4119 14.4164 9.28658 14.7074 9.23581C14.9983 9.18504 15.2999 9.2111 15.574 9.31068C15.8481 9.41027 16.0824 9.57892 16.2472 9.7953C16.412 10.0117 16.5 10.2661 16.5 10.5263C16.5 10.8753 16.342 11.21 16.0607 11.4567C15.7794 11.7035 15.3978 11.8421 15 11.8421ZM21 11.8421C20.7033 11.8421 20.4133 11.7649 20.1666 11.6204C19.92 11.4758 19.7277 11.2703 19.6142 11.0298C19.5006 10.7894 19.4709 10.5249 19.5288 10.2696C19.5867 10.0144 19.7296 9.77993 19.9393 9.59591C20.1491 9.4119 20.4164 9.28658 20.7074 9.23581C20.9983 9.18504 21.2999 9.2111 21.574 9.31068C21.8481 9.41027 22.0824 9.57892 22.2472 9.7953C22.412 10.0117 22.5 10.2661 22.5 10.5263C22.5 10.8753 22.342 11.21 22.0607 11.4567C21.7794 11.7035 21.3978 11.8421 21 11.8421Z" fill="white"/>
</svg>
