<svg width="130" height="120" viewBox="0 0 130 120" fill="none" xmlns="http://www.w3.org/2000/svg">
<path d="M65 57.6C61.1 57.6 58.5 60 58.5 63.6C58.5 66 60.45 67.8 62.4 68.4L60.45 76.8H68.9L66.95 68.4C69.55 67.8 70.85 66 70.85 63.6C71.5 60 68.9 57.6 65 57.6ZM65.65 31.8C61.1 31.8 56.55 34.8 56.55 39V48H74.1V39C73.45 34.8 70.2 31.8 65.65 31.8ZM65 12L19.5 30V48C20.15 74.4 38.35 97.8 65 107.4C91.65 97.8 109.85 74.4 110.5 48V30L65 12ZM91 78C91 81.6 88.4 84 84.5 84H45.5C41.6 84 39 81.6 39 78V54C39 50.4 41.6 48 45.5 48H47.45V39C48.1 30.6 55.9 24 65 24C74.1 24 81.9 30.6 82.55 39V48H84.5C88.4 48 91 50.4 91 54V78Z" fill="#5846DF"/>
</svg>
