<svg width="30" height="30" viewBox="0 0 30 30" fill="none" xmlns="http://www.w3.org/2000/svg">
<path fill-rule="evenodd" clip-rule="evenodd" d="M17.8175 1.70614C16.4475 1.32364 15.165 1.73614 14.2537 2.57489C13.355 3.39989 12.8125 4.63239 12.8125 5.94989V14.3186C12.8125 15.0795 13.1147 15.8092 13.6527 16.3472C14.1907 16.8852 14.9204 17.1874 15.6813 17.1874H24.0487C25.3675 17.1874 26.6013 16.6449 27.425 15.7461C28.2625 14.8349 28.6763 13.5524 28.2938 12.1824C27.5926 9.68449 26.2609 7.40887 24.4265 5.57422C22.592 3.73957 20.3166 2.40754 17.8188 1.70614M14.6875 5.94989C14.6875 5.13489 15.025 4.40989 15.5225 3.95364C16.005 3.50989 16.63 3.31864 17.3137 3.50989C21.7512 4.74864 25.25 8.24739 26.4888 12.6849C26.68 13.3699 26.4888 13.9949 26.045 14.4774C25.5888 14.9736 24.8638 15.3111 24.0487 15.3111H15.6813C15.4177 15.3111 15.1649 15.2064 14.9786 15.0201C14.7922 14.8337 14.6875 14.581 14.6875 14.3174V5.94989Z" fill="white"/>
<path d="M10.84 5.89468C11.0774 5.82008 11.2754 5.65425 11.3905 5.43366C11.5056 5.21307 11.5283 4.95579 11.4537 4.71843C11.3792 4.48106 11.2133 4.28304 10.9927 4.16794C10.7721 4.05284 10.5149 4.03008 10.2775 4.10468C5.22875 5.69218 1.5625 10.4097 1.5625 15.9872C1.5625 22.8634 7.1375 28.4384 14.0125 28.4384C16.6626 28.4388 19.2438 27.5937 21.3806 26.0261C23.5174 24.4585 25.0984 22.2502 25.8937 19.7222C25.9356 19.6035 25.9531 19.4777 25.9452 19.3521C25.9374 19.2266 25.9044 19.1039 25.8481 18.9914C25.7919 18.8788 25.7136 18.7788 25.6179 18.6972C25.5221 18.6155 25.411 18.554 25.291 18.5163C25.171 18.4785 25.0446 18.4653 24.9194 18.4774C24.7942 18.4895 24.6727 18.5266 24.5621 18.5867C24.4516 18.6467 24.3543 18.7284 24.2759 18.8268C24.1976 18.9253 24.1399 19.0385 24.1062 19.1597C23.4303 21.3068 22.0872 23.1824 20.2721 24.5139C18.4571 25.8454 16.2648 26.5633 14.0137 26.5634C12.6249 26.5636 11.2497 26.2902 9.96649 25.7588C8.68333 25.2274 7.5174 24.4485 6.53529 23.4665C5.55318 22.4845 4.77412 21.3187 4.24259 20.0356C3.71107 18.7525 3.4375 17.3773 3.4375 15.9884C3.4375 13.7376 4.15527 11.5453 5.48651 9.73032C6.81776 7.91532 8.69309 6.57087 10.84 5.89468Z" fill="white"/>
</svg>
