<svg width="45" height="45" viewBox="0 0 45 45" fill="none" xmlns="http://www.w3.org/2000/svg">
<path d="M26.2257 21.7971C26.2949 21.7971 26.3627 21.7767 26.4204 21.7384C26.4781 21.7001 26.5232 21.6456 26.5501 21.5818C26.5769 21.518 26.5843 21.4476 26.5713 21.3796C26.5583 21.3116 26.5255 21.2489 26.4771 21.1994L19.5864 14.1928C19.5375 14.143 19.4748 14.109 19.4064 14.095C19.3381 14.081 19.2671 14.0877 19.2025 14.1142C19.1379 14.1407 19.0827 14.1858 19.0439 14.2438C19.005 14.3017 18.9843 14.37 18.9844 14.4397V20.7424C18.9844 21.0221 19.0955 21.2904 19.2933 21.4882C19.4911 21.6859 19.7593 21.7971 20.0391 21.7971H26.2257Z" fill="white"/>
<path d="M17.3144 23.467C16.9534 23.1108 16.6666 22.6867 16.4705 22.219C16.2744 21.7514 16.1729 21.2495 16.1719 20.7424V12.6564H9.84375C8.35326 12.6608 6.92508 13.2549 5.87114 14.3088C4.8172 15.3628 4.22316 16.791 4.21875 18.2814V37.9689C4.21875 39.4608 4.81138 40.8915 5.86627 41.9464C6.92116 43.0013 8.3519 43.5939 9.84375 43.5939H22.5C23.9918 43.5939 25.4226 43.0013 26.4775 41.9464C27.5324 40.8915 28.125 39.4608 28.125 37.9689V24.6096H20.0391C19.5319 24.6088 19.0299 24.5075 18.5622 24.3113C18.0945 24.1152 17.6704 23.8282 17.3144 23.467ZM32.6953 10.5471H38.8819C38.9512 10.5471 39.0189 10.5267 39.0766 10.4884C39.1343 10.4501 39.1794 10.3956 39.2063 10.3318C39.2331 10.268 39.2405 10.1976 39.2275 10.1296C39.2146 10.0616 39.1818 9.99887 39.1333 9.94941L32.2427 2.94277C32.1937 2.89305 32.131 2.85902 32.0627 2.84503C31.9943 2.83104 31.9233 2.83771 31.8587 2.86419C31.7942 2.89068 31.739 2.93578 31.7001 2.99376C31.6613 3.05173 31.6406 3.11996 31.6406 3.18974V9.49238C31.6406 9.7721 31.7517 10.0404 31.9495 10.2382C32.1473 10.4359 32.4156 10.5471 32.6953 10.5471Z" fill="white"/>
<path d="M32.6953 13.3594C31.6721 13.3516 30.693 12.9416 29.9694 12.2181C29.2459 11.4945 28.8359 10.5154 28.8281 9.49219V1.40625H19.3359C17.9378 1.40788 16.5975 1.96399 15.6089 2.9526C14.6202 3.94121 14.0641 5.28158 14.0625 6.67969V9.84375H17.7645C18.237 9.84564 18.7045 9.94087 19.1401 10.124C19.5757 10.3071 19.9708 10.5745 20.3027 10.9107L29.8969 20.6666C30.5662 21.3457 30.9399 22.2619 30.9366 23.2154V35.1562H35.5992C38.4565 35.1562 40.7804 32.7902 40.7804 29.8828V13.3594H32.6953Z" fill="white"/>
</svg>
