<svg width="28" height="57" viewBox="0 0 28 57" fill="none" xmlns="http://www.w3.org/2000/svg">
<path fill-rule="evenodd" clip-rule="evenodd" d="M6.74643 35.6822L1.24989 32.5319C0.967242 32.3699 0.641655 32.377 0.372518 32.5507C0.103441 32.7245 -0.0324974 33.0153 0.00687537 33.3342L2.8227 56.2534C2.85488 56.5158 2.99338 56.7299 3.22127 56.8703C3.44923 57.0106 3.70315 57.0381 3.95222 56.9488L26.842 48.7624C27.1536 48.6508 27.3561 48.3863 27.3811 48.0577C27.406 47.7292 27.2462 47.4313 26.9555 47.2647L21.8494 44.3382C36.1798 19.3347 22.1203 0.382155 4.61604 0.000252955C18.282 13.171 11.7906 26.8812 6.74643 35.6822Z" fill="#5846DF"/>
</svg>
