<svg width="811" height="408" viewBox="0 0 811 408" fill="none" xmlns="http://www.w3.org/2000/svg">
<rect x="53" y="225" width="44" height="183" rx="10" fill="url(#paint0_radial_782_1234)"/>
<rect x="329" y="222" width="44" height="183" rx="10" fill="url(#paint1_radial_782_1234)"/>
<rect x="605" y="219" width="44" height="183" rx="10" fill="url(#paint2_radial_782_1234)"/>
<rect x="161" y="208" width="44" height="200" rx="10" fill="url(#paint3_radial_782_1234)"/>
<rect x="437" y="205" width="44" height="200" rx="10" fill="url(#paint4_radial_782_1234)"/>
<rect x="713" width="44" height="402" rx="10" fill="url(#paint5_radial_782_1234)"/>
<rect y="278" width="44" height="130" rx="10" fill="#F0F0F0"/>
<rect x="276" y="275" width="44" height="130" rx="10" fill="#F0F0F0"/>
<rect x="552" y="272" width="44" height="130" rx="10" fill="#F0F0F0"/>
<rect x="215" y="278" width="44" height="130" rx="10" fill="#F0F0F0"/>
<rect x="491" y="275" width="44" height="130" rx="10" fill="#F0F0F0"/>
<rect x="767" y="272" width="44" height="130" rx="10" fill="#F0F0F0"/>
<rect x="108" y="158" width="44" height="250" rx="10" fill="#F0F0F0"/>
<rect x="384" y="51" width="44" height="354" rx="10" fill="#F0F0F0"/>
<rect x="660" y="152" width="44" height="250" rx="10" fill="#F0F0F0"/>
<defs>
<radialGradient id="paint0_radial_782_1234" cx="0" cy="0" r="1" gradientUnits="userSpaceOnUse" gradientTransform="translate(147.992 225) rotate(104.054) scale(346.986 180.757)">
<stop stop-color="#081029"/>
<stop offset="1" stop-color="#232266"/>
</radialGradient>
<radialGradient id="paint1_radial_782_1234" cx="0" cy="0" r="1" gradientUnits="userSpaceOnUse" gradientTransform="translate(423.992 222) rotate(104.054) scale(346.986 180.757)">
<stop stop-color="#081029"/>
<stop offset="1" stop-color="#232266"/>
</radialGradient>
<radialGradient id="paint2_radial_782_1234" cx="0" cy="0" r="1" gradientUnits="userSpaceOnUse" gradientTransform="translate(699.992 219) rotate(104.054) scale(346.986 180.757)">
<stop stop-color="#081029"/>
<stop offset="1" stop-color="#232266"/>
</radialGradient>
<radialGradient id="paint3_radial_782_1234" cx="0" cy="0" r="1" gradientUnits="userSpaceOnUse" gradientTransform="translate(255.992 208) rotate(102.901) scale(377.395 181.631)">
<stop stop-color="#081029"/>
<stop offset="1" stop-color="#232266"/>
</radialGradient>
<radialGradient id="paint4_radial_782_1234" cx="0" cy="0" r="1" gradientUnits="userSpaceOnUse" gradientTransform="translate(531.992 205) rotate(102.901) scale(377.395 181.631)">
<stop stop-color="#081029"/>
<stop offset="1" stop-color="#232266"/>
</radialGradient>
<radialGradient id="paint5_radial_782_1234" cx="0" cy="0" r="1" gradientUnits="userSpaceOnUse" gradientTransform="translate(807.992 -7.54516e-06) rotate(96.5013) scale(744.2 185.137)">
<stop stop-color="#081029"/>
<stop offset="1" stop-color="#232266"/>
</radialGradient>
</defs>
</svg>
