<svg width="50" height="50" viewBox="0 0 50 50" fill="none" xmlns="http://www.w3.org/2000/svg">
<g clip-path="url(#clip0_280_558)">
<path d="M26 24L1.8125 48.1875C0.65625 47.0938 0.03125 45.5937 0.03125 43.9687V6.03125C0.03125 4.375 0.6875 2.875 1.875 1.75L26 24Z" fill="#2196F3"/>
<path d="M46.9062 25C46.9062 27.1875 45.7188 29.125 43.75 30.2188L36.875 34.0313L28.3437 26.1563L26 24L35.0312 14.9688L43.75 19.7813C45.7188 20.875 46.9062 22.8125 46.9062 25Z" fill="#FFC107"/>
<path d="M26 23.9997L1.875 1.74966C2.1875 1.43716 2.59375 1.15591 3 0.905907C4.96875 -0.281593 7.34375 -0.312843 9.375 0.812157L35.0312 14.9684L26 23.9997Z" fill="#4CAF50"/>
<path d="M36.875 34.0313L9.375 49.1875C8.40625 49.75 7.3125 50 6.25 50C5.125 50 4 49.7188 3 49.0938C2.56605 48.8452 2.16677 48.5405 1.8125 48.1875L26 24L28.3438 26.1563L36.875 34.0313Z" fill="#F44336"/>
</g>
<defs>
<clipPath id="clip0_280_558">
<rect width="50" height="50" fill="white"/>
</clipPath>
</defs>
</svg>
