<svg width="45" height="45" viewBox="0 0 45 45" fill="none" xmlns="http://www.w3.org/2000/svg">
<path d="M22.5019 16.875C21.01 16.875 19.5793 17.4676 18.5244 18.5225C17.4695 19.5774 16.8769 21.0082 16.8769 22.5C16.8769 23.9918 17.4695 25.4226 18.5244 26.4775C19.5793 27.5324 21.01 28.125 22.5019 28.125C23.9937 28.125 25.4245 27.5324 26.4794 26.4775C27.5342 25.4226 28.1269 23.9918 28.1269 22.5C28.1269 21.0082 27.5342 19.5774 26.4794 18.5225C25.4245 17.4676 23.9937 16.875 22.5019 16.875ZM22.5019 13.125C24.9883 13.125 27.3728 14.1127 29.131 15.8709C30.8892 17.629 31.8769 20.0136 31.8769 22.5C31.8769 24.9864 30.8892 27.371 29.131 29.1291C27.3728 30.8873 24.9883 31.875 22.5019 31.875C20.0155 31.875 17.6309 30.8873 15.8727 29.1291C14.1146 27.371 13.1269 24.9864 13.1269 22.5C13.1269 20.0136 14.1146 17.629 15.8727 15.8709C17.6309 14.1127 20.0155 13.125 22.5019 13.125ZM34.6894 12.6562C34.6894 13.2779 34.4424 13.874 34.0029 14.3135C33.5634 14.7531 32.9672 15 32.3456 15C31.724 15 31.1279 14.7531 30.6883 14.3135C30.2488 13.874 30.0019 13.2779 30.0019 12.6562C30.0019 12.0346 30.2488 11.4385 30.6883 10.999C31.1279 10.5594 31.724 10.3125 32.3456 10.3125C32.9672 10.3125 33.5634 10.5594 34.0029 10.999C34.4424 11.4385 34.6894 12.0346 34.6894 12.6562ZM22.5019 7.5C17.8631 7.5 17.1056 7.51313 14.9475 7.60875C13.4775 7.67813 12.4913 7.875 11.5762 8.23125C10.8105 8.51238 10.1183 8.96299 9.55125 9.54938C8.96439 10.1164 8.51316 10.8086 8.23125 11.5744C7.875 12.4931 7.67813 13.4775 7.61063 14.9456C7.51312 17.0156 7.5 17.7394 7.5 22.5C7.5 27.1406 7.51313 27.8962 7.60875 30.0544C7.67813 31.5225 7.875 32.5106 8.22937 33.4237C8.54812 34.2394 8.92313 34.8263 9.54563 35.4487C10.1775 36.0788 10.7644 36.4556 11.5706 36.7669C12.4969 37.125 13.4831 37.3237 14.9456 37.3913C17.0156 37.4888 17.7394 37.5 22.5 37.5C27.1406 37.5 27.8962 37.4869 30.0544 37.3913C31.5206 37.3219 32.5069 37.125 33.4237 36.7706C34.1888 36.4881 34.8807 36.0377 35.4487 35.4525C36.0806 34.8225 36.4575 34.2356 36.7688 33.4275C37.125 32.505 37.3237 31.5187 37.3913 30.0525C37.4888 27.9844 37.5 27.2588 37.5 22.5C37.5 17.8612 37.4869 17.1038 37.3913 14.9456C37.3219 13.4794 37.1231 12.4894 36.7688 11.5744C36.4861 10.8094 36.0357 10.1175 35.4506 9.54938C34.8839 8.96221 34.1916 8.51094 33.4256 8.22937C32.5069 7.87313 31.5206 7.67625 30.0544 7.60875C27.9862 7.51125 27.2625 7.5 22.5 7.5M22.5 3.75C27.5944 3.75 28.23 3.76875 30.2306 3.8625C32.2256 3.95625 33.5869 4.26938 34.7812 4.73438C36.0187 5.21063 37.0613 5.85562 38.1038 6.89625C39.0572 7.83355 39.7949 8.96735 40.2656 10.2187C40.7288 11.4131 41.0438 12.7744 41.1375 14.7712C41.2256 16.77 41.25 17.4056 41.25 22.5C41.25 27.5944 41.2313 28.23 41.1375 30.2288C41.0438 32.2256 40.7288 33.585 40.2656 34.7812C39.7962 36.0333 39.0583 37.1674 38.1038 38.1038C37.1662 39.0569 36.0325 39.7945 34.7812 40.2656C33.5869 40.7288 32.2256 41.0438 30.2306 41.1375C28.23 41.2256 27.5944 41.25 22.5 41.25C17.4056 41.25 16.77 41.2313 14.7694 41.1375C12.7744 41.0438 11.415 40.7288 10.2187 40.2656C8.96686 39.7959 7.83286 39.058 6.89625 38.1038C5.94268 37.1666 5.20493 36.0327 4.73438 34.7812C4.26938 33.5869 3.95625 32.2256 3.8625 30.2288C3.7725 28.23 3.75 27.5944 3.75 22.5C3.75 17.4056 3.76875 16.77 3.8625 14.7712C3.95625 12.7744 4.26938 11.415 4.73438 10.2187C5.20357 8.96659 5.94151 7.83248 6.89625 6.89625C7.83313 5.94231 8.96705 5.20449 10.2187 4.73438C11.4131 4.26938 12.7725 3.95625 14.7694 3.8625C16.7719 3.77437 17.4075 3.75 22.5019 3.75" fill="white"/>
</svg>
