<svg width="70" height="42" viewBox="0 0 70 42" fill="none" xmlns="http://www.w3.org/2000/svg">
<g clip-path="url(#clip0_132_91)">
<path d="M38.6013 33.2772C38.4996 33.2162 38.4189 33.1438 38.3639 33.0642C38.3088 32.9845 38.2805 32.8991 38.2805 32.8129C38.2805 32.7266 38.3088 32.6412 38.3639 32.5616C38.4189 32.4819 38.4996 32.4095 38.6013 32.3486L56.4212 21.6566L10.9376 21.6566C10.6475 21.6566 10.3693 21.5875 10.1642 21.4644C9.9591 21.3413 9.84387 21.1744 9.84387 21.0004C9.84387 20.8263 9.9591 20.6594 10.1642 20.5363C10.3693 20.4133 10.6475 20.3441 10.9376 20.3441L56.4212 20.3441L38.6013 9.65216C38.4997 9.59119 38.4191 9.5188 38.3641 9.43914C38.3091 9.35948 38.2808 9.27409 38.2808 9.18786C38.2808 9.10164 38.3091 9.01625 38.3641 8.93659C38.4191 8.85692 38.4997 8.78454 38.6013 8.72357C38.7029 8.6626 38.8236 8.61423 38.9563 8.58123C39.0891 8.54823 39.2314 8.53125 39.3751 8.53125C39.5188 8.53125 39.6611 8.54823 39.7939 8.58123C39.9267 8.61423 40.0473 8.6626 40.1489 8.72357L59.8364 20.5361C59.9381 20.597 60.0188 20.6694 60.0739 20.7491C60.1289 20.8287 60.1572 20.9141 60.1572 21.0004C60.1572 21.0866 60.1289 21.172 60.0739 21.2517C60.0188 21.3313 59.9381 21.4037 59.8364 21.4647L40.1489 33.2772C40.0474 33.3382 39.9267 33.3866 39.794 33.4196C39.6612 33.4526 39.5189 33.4696 39.3751 33.4696C39.2314 33.4696 39.0891 33.4526 38.9563 33.4196C38.8235 33.3866 38.7029 33.3382 38.6013 33.2772Z" fill="black"/>
</g>
<defs>
<clipPath id="clip0_132_91">
<rect width="42" height="70" fill="white" transform="matrix(0 1 -1 0 70 0)"/>
</clipPath>
</defs>
</svg>
