<svg width="4" height="21" viewBox="0 0 4 21" fill="none" xmlns="http://www.w3.org/2000/svg">
<path d="M2 3.10858C2.67352 3.10858 3.21951 2.58742 3.21951 1.94453C3.21951 1.30165 2.67352 0.780488 2 0.780488C1.32648 0.780488 0.780488 1.30165 0.780488 1.94453C0.780488 2.58742 1.32648 3.10858 2 3.10858Z" stroke="black" stroke-width="1.5" stroke-linecap="round" stroke-linejoin="round"/>
<path d="M2 11.6452C2.67352 11.6452 3.21951 11.124 3.21951 10.4811C3.21951 9.83823 2.67352 9.31707 2 9.31707C1.32648 9.31707 0.780488 9.83823 0.780488 10.4811C0.780488 11.124 1.32648 11.6452 2 11.6452Z" stroke="black" stroke-width="1.5" stroke-linecap="round" stroke-linejoin="round"/>
<path d="M2 20.1818C2.67352 20.1818 3.21951 19.6606 3.21951 19.0177C3.21951 18.3748 2.67352 17.8537 2 17.8537C1.32648 17.8537 0.780488 18.3748 0.780488 19.0177C0.780488 19.6606 1.32648 20.1818 2 20.1818Z" stroke="black" stroke-width="1.5" stroke-linecap="round" stroke-linejoin="round"/>
</svg>
