<svg width="25" height="26" viewBox="0 0 25 26" fill="none" xmlns="http://www.w3.org/2000/svg">
<path d="M12.2457 2.6C15.6953 2.6 17.6522 5.09994 17.9363 8.11988H18.022C20.2447 8.11988 22.0423 10.0855 22.0423 12.51C22.0423 12.6336 22.0374 12.7571 22.0289 12.878C21.6341 12.3553 21.1753 11.8909 20.6647 11.4973C20.2851 10.2844 19.2405 9.4199 18.0233 9.4199H17.9363C17.6327 9.41991 17.34 9.3002 17.1148 9.08401C16.8897 8.86782 16.7482 8.57055 16.7179 8.24989C16.4705 5.62255 14.8283 3.90002 12.2457 3.90002C9.65696 3.90002 8.02214 5.61085 7.77355 8.24859C7.74348 8.56949 7.60213 8.86707 7.37696 9.08353C7.15179 9.29999 6.85887 9.41987 6.5551 9.4199H6.46938C4.93131 9.4199 3.67367 10.7953 3.67367 12.51C3.67367 14.2261 4.93253 15.6002 6.46815 15.6002H9.73288C9.62455 16.0259 9.55201 16.4609 9.51613 16.9002H6.46815C4.24799 16.9002 2.44909 14.9346 2.44909 12.51C2.44909 10.1661 4.13044 8.25119 6.24773 8.12638L6.5551 8.11988C6.84165 5.08044 8.79608 2.6 12.2457 2.6ZM22.0423 17.5502C22.0423 19.1018 21.4618 20.5898 20.4283 21.6869C19.3949 22.784 17.9932 23.4003 16.5317 23.4003C15.0702 23.4003 13.6686 22.784 12.6352 21.6869C11.6017 20.5898 11.0211 19.1018 11.0211 17.5502C11.0211 15.9987 11.6017 14.5107 12.6352 13.4136C13.6686 12.3165 15.0702 11.7001 16.5317 11.7001C17.9932 11.7001 19.3949 12.3165 20.4283 13.4136C21.4618 14.5107 22.0423 15.9987 22.0423 17.5502ZM18.5474 15.14L15.3072 18.5811L14.5161 17.74C14.4592 17.6796 14.3916 17.6317 14.3172 17.5989C14.2428 17.5662 14.1631 17.5494 14.0826 17.5494C14.0021 17.5494 13.9224 17.5662 13.848 17.5989C13.7736 17.6317 13.706 17.6796 13.6491 17.74C13.5922 17.8005 13.547 17.8722 13.5162 17.9512C13.4854 18.0301 13.4695 18.1148 13.4695 18.2002C13.4695 18.2857 13.4854 18.3703 13.5162 18.4493C13.547 18.5283 13.5922 18.6 13.6491 18.6604L14.8737 19.9605C14.9305 20.021 14.9981 20.069 15.0725 20.1018C15.1469 20.1346 15.2266 20.1514 15.3072 20.1514C15.3877 20.1514 15.4674 20.1346 15.5418 20.1018C15.6162 20.069 15.6838 20.021 15.7407 19.9605L19.4144 16.0604C19.5294 15.9383 19.594 15.7728 19.594 15.6002C19.594 15.4276 19.5294 15.262 19.4144 15.14C19.2994 15.0179 19.1435 14.9494 18.9809 14.9494C18.8183 14.9494 18.6624 15.0179 18.5474 15.14Z" fill="#E6AF4E"/>
</svg>
