<svg width="58" height="69" viewBox="0 0 58 69" fill="none" xmlns="http://www.w3.org/2000/svg">
<g clip-path="url(#clip0_124_18)">
<path d="M57.0236 38.6113H27.9415C26.3831 38.4684 24.8402 39.0613 23.6466 40.2618C22.453 41.4622 21.7048 43.1735 21.5639 45.0254L21.5615 45.0513C21.7044 46.9275 22.4676 48.6594 23.6834 49.8664C24.8993 51.0735 26.4682 51.6569 28.0454 51.4884L28.0236 51.4912H57.0236C57.2062 51.5113 57.3902 51.4878 57.5651 51.4222C57.7399 51.3565 57.9019 51.25 58.0417 51.1089C58.1815 50.9678 58.2962 50.7949 58.379 50.6004C58.4619 50.4059 58.5113 50.1937 58.5244 49.9761V40.1321C58.477 39.7114 58.303 39.3254 58.0345 39.0457C57.7661 38.766 57.4215 38.6117 57.0647 38.6113H57.0212H57.0236ZM27.9415 49.0705C27.258 49.0705 26.5898 48.8294 26.0215 48.3776C25.4532 47.9259 25.0103 47.2838 24.7487 46.5326C24.4871 45.7813 24.4187 44.9547 24.552 44.1572C24.6854 43.3597 25.0145 42.6271 25.4978 42.0522C25.9811 41.4772 26.5969 41.0856 27.2673 40.927C27.9376 40.7684 28.6325 40.8498 29.264 41.1609C29.8954 41.4721 30.4352 41.9991 30.8149 42.6752C31.1946 43.3513 31.3973 44.1461 31.3973 44.9592V44.9707C31.3973 47.2363 29.8531 49.0705 27.9511 49.0705H27.9415ZM7.96289 0V18.4115H11.2689V10.5455C11.6024 10.6432 11.9891 10.7065 12.3854 10.7238H12.3951C13.5897 10.72 14.7344 10.1539 15.5794 9.14928C16.4243 8.14464 16.9007 6.78303 16.9046 5.36188C16.8966 4.89513 16.843 4.43106 16.7451 3.979L16.7523 4.02213H34.858C34.7707 4.45778 34.7205 4.90277 34.7081 5.35037V5.36188C34.7113 6.78303 35.1871 8.14494 36.0316 9.15012C36.8761 10.1553 38.0206 10.7221 39.2152 10.7266C39.6212 10.7094 40.0103 10.6461 40.3825 10.5369L40.3438 10.5455V18.4115H43.7296V0H7.96289ZM45.153 16.1747H49.3604C49.0452 15.0855 48.4929 14.1151 47.7597 13.3626C47.0265 12.6101 46.1387 12.1023 45.1868 11.891L45.153 11.8852V16.1747Z" fill="white"/>
<path d="M27.7216 36.4664H56.5717V26.01C56.4483 24.4589 55.8175 23.0276 54.8153 22.0247C53.813 21.0217 52.5197 20.5273 51.214 20.6481H51.2309H5.41092C5.3719 20.5975 5.31855 20.5657 5.26108 20.559C4.9434 20.3814 4.67144 20.106 4.47341 19.7612C4.27539 19.4164 4.15852 19.0149 4.13492 18.5983V18.5925C4.17339 18.0754 4.34376 17.5846 4.6232 17.1859C4.90265 16.7872 5.27783 16.4995 5.6985 16.3615L5.713 16.3586V11.8018C2.55442 11.98 0 17.3419 0 24.0464V63.6409C0.124679 65.1901 0.755236 66.6193 1.75617 67.6214C2.7571 68.6234 4.04852 69.1184 5.35292 68.9999H5.336H51.156C52.4548 69.1139 53.7396 68.6193 54.7362 67.6218C55.7327 66.6243 56.3619 65.2029 56.4896 63.661L56.492 63.638V53.1816H27.8013C23.1444 53.1816 19.3865 49.4269 19.3865 44.87C19.3865 40.224 23.142 36.4693 27.724 36.4693L27.7216 36.4664Z" fill="white"/>
</g>
<defs>
<clipPath id="clip0_124_18">
<rect width="58" height="69" fill="white"/>
</clipPath>
</defs>
</svg>
