<svg width="66" height="332" viewBox="0 0 66 332" fill="none" xmlns="http://www.w3.org/2000/svg">
<circle cx="32.5" cy="32.5" r="32.5" fill="#5846DF"/>
<path d="M49.0299 17.8301L27.9691 42.7175L20.0039 33.3723L17 36.8966L26.4503 47.9841C26.8722 48.479 27.446 48.875 27.9523 48.875C28.4585 48.875 29.0154 48.479 29.4373 48.0039L52 21.3939L49.0299 17.8301Z" fill="white"/>
<ellipse cx="32.5" cy="160" rx="32.5" ry="33" fill="#5846DF"/>
<path d="M49.0299 144.123L27.9691 169.393L20.0039 159.904L17 163.483L26.4503 174.741C26.8722 175.244 27.446 175.646 27.9523 175.646C28.4585 175.646 29.0154 175.244 29.4373 174.761L52 147.742L49.0299 144.123Z" fill="white"/>
<ellipse cx="33.5" cy="299" rx="32.5" ry="33" fill="#5846DF"/>
<path d="M50.0299 283.269L28.9691 308.539L21.0039 299.05L18 302.628L27.4503 313.886C27.8722 314.389 28.446 314.791 28.9523 314.791C29.4585 314.791 30.0154 314.389 30.4373 313.907L53 286.887L50.0299 283.269Z" fill="white"/>
</svg>
