<svg width="26" height="24" viewBox="0 0 26 24" fill="none" xmlns="http://www.w3.org/2000/svg">
<path d="M19.9024 24H5.26829C2.35844 24 0 21.6416 0 18.7317V5.26829C0 2.35844 2.35844 0 5.26829 0H19.9024C22.8123 0 25.1707 2.35844 25.1707 5.26829V18.7317C25.1707 21.6416 22.8123 24 19.9024 24Z" fill="#E9ECF4" fill-opacity="0.05"/>
<path d="M25.1712 18.2517V18.7317C25.1712 20.6505 24.1456 22.3293 22.6126 23.2507C19.427 20.3127 13.8853 13.6115 18.745 5.76991C19.9573 3.8142 21.5958 1.89772 22.6301 0.759766C22.9064 0.92718 23.1657 1.11918 23.4057 1.33401C22.4779 3.37752 20.8652 7.67118 21.4184 11.8396C21.7649 14.4509 23.2606 16.5172 25.1712 18.2517Z" fill="#5ABF73"/>
<path d="M16.1569 8.9971C14.2059 14.8033 17.5202 20.6547 20.9926 23.8865C20.6408 23.9608 20.2761 24 19.902 24H13.2593C11.5483 21.8968 7.52215 15.6744 11.7608 7.67359C13.929 3.58188 17.7696 1.24452 20.4845 0.0322266C21.0827 0.0977875 21.6505 0.263446 22.1715 0.512227C20.4406 2.14715 17.358 5.42286 16.1569 8.9971Z" fill="#F24976"/>
<path d="M9.07738 10.3323C7.19836 15.1417 9.03114 20.8993 11.0015 24H5.26841C4.18548 24 3.17924 23.674 2.34275 23.1132C1.91368 19.8626 1.35699 12.1592 4.71992 7.09581C7.15797 3.42498 11.3919 1.42361 16.2885 0H19.3289C16.0719 1.48624 11.3375 4.54654 9.07738 10.3323Z" fill="#1B4399"/>
</svg>
