<svg width="92" height="92" viewBox="0 0 92 92" fill="none" xmlns="http://www.w3.org/2000/svg">
<path d="M47 45.8C45.2 45.8 44 47 44 48.8C44 50 44.9 50.9 45.8 51.2L44.9 55.4H48.8L47.9 51.2C49.1 50.9 49.7 50 49.7 48.8C50 47 48.8 45.8 47 45.8ZM47.3 32.9C45.2 32.9 43.1 34.4 43.1 36.5V41H51.2V36.5C50.9 34.4 49.4 32.9 47.3 32.9ZM47 23L26 32V41C26.3 54.2 34.7 65.9 47 70.7C59.3 65.9 67.7 54.2 68 41V32L47 23ZM59 56C59 57.8 57.8 59 56 59H38C36.2 59 35 57.8 35 56V44C35 42.2 36.2 41 38 41H38.9V36.5C39.2 32.3 42.8 29 47 29C51.2 29 54.8 32.3 55.1 36.5V41H56C57.8 41 59 42.2 59 44V56Z" fill="#5846DF"/>
<circle cx="46" cy="46" r="45.5" stroke="#5846DF"/>
</svg>
