<svg width="35" height="35" viewBox="0 0 35 35" fill="none" xmlns="http://www.w3.org/2000/svg">
<path d="M18.2583 0.280076C18.047 0.0993256 17.7781 0 17.5 0C17.2219 0 16.953 0.0993256 16.7417 0.280076L0 14.63V31.5C0 32.4283 0.368749 33.3185 1.02513 33.9749C1.6815 34.6313 2.57174 35 3.5 35H12.8333C13.1428 35 13.4395 34.8771 13.6583 34.6583C13.8771 34.4395 14 34.1428 14 33.8333V26.8334C14 25.9051 14.3687 25.0149 15.0251 24.3585C15.6815 23.7021 16.5717 23.3334 17.5 23.3334C18.4283 23.3334 19.3185 23.7021 19.9749 24.3585C20.6313 25.0149 21 25.9051 21 26.8334V33.8333C21 34.1428 21.1229 34.4395 21.3417 34.6583C21.5605 34.8771 21.8572 35 22.1667 35H31.5C32.4283 35 33.3185 34.6313 33.9749 33.9749C34.6312 33.3185 35 32.4283 35 31.5V14.63L18.2583 0.280076Z" fill="white"/>
</svg>
