<svg width="788" height="116" viewBox="0 0 788 116" fill="none" xmlns="http://www.w3.org/2000/svg">
<path d="M3.73592 85.1908C19.9478 97.0049 33.212 106.829 72.4152 106.332C117.219 105.763 125.738 82.7037 178.824 82.7037C242.492 82.7037 294.96 116.281 379.851 111.306C483.312 105.244 481.838 3.73592 526.937 3.73592C579.994 3.73592 526.937 90.1652 636.293 98.9947C686.381 103.039 763.04 89.9579 784.263 82.7037" stroke="#081029" stroke-width="7.46661" stroke-linecap="round"/>
<path d="M642.325 110.308C647.852 110.308 652.332 105.828 652.332 100.301C652.332 94.7746 647.852 90.2944 642.325 90.2944C636.799 90.2944 632.319 94.7746 632.319 100.301C632.319 105.828 636.799 110.308 642.325 110.308Z" fill="#081029" stroke="#5846DF" stroke-width="5"/>
</svg>
