<svg width="15" height="13" viewBox="0 0 15 13" fill="none" xmlns="http://www.w3.org/2000/svg">
<path d="M13.4667 8.69961C13.2909 8.85193 13.0525 8.9375 12.8039 8.9375C12.5553 8.9375 12.3169 8.85193 12.1411 8.69961L7.50047 4.67774L2.85985 8.69961C2.68303 8.84761 2.44622 8.92951 2.20041 8.92766C1.9546 8.92581 1.71946 8.84036 1.54564 8.68971C1.37182 8.53907 1.27323 8.33528 1.27109 8.12225C1.26896 7.90921 1.36345 7.70398 1.53422 7.55074L6.83766 2.95442C7.01347 2.8021 7.25188 2.71653 7.50047 2.71653C7.74906 2.71653 7.98748 2.8021 8.16329 2.95442L13.4667 7.55074C13.6425 7.7031 13.7412 7.90973 13.7412 8.12517C13.7412 8.34062 13.6425 8.54724 13.4667 8.69961Z" fill="white"/>
</svg>
