<svg width="75" height="75" viewBox="0 0 75 75" fill="none" xmlns="http://www.w3.org/2000/svg">
<path d="M53.2809 63.375C50.2184 66.3438 46.8747 65.875 43.6559 64.4688C40.2497 63.0312 37.1247 62.9688 33.5309 64.4688C29.0309 66.4062 26.6559 65.8438 23.9684 63.375C8.71841 47.6563 10.9684 23.7188 28.2809 22.8438C32.4997 23.0625 35.4372 25.1562 37.9059 25.3438C41.5934 24.5938 45.1247 22.4375 49.0622 22.7188C53.7809 23.0938 57.3434 24.9688 59.6872 28.3438C49.9372 34.1875 52.2497 47.0313 61.1872 50.625C59.4059 55.3125 57.0934 59.9688 53.2497 63.4063L53.2809 63.375ZM37.5934 22.6563C37.1247 15.6875 42.7809 9.9375 49.2809 9.375C50.1872 17.4375 41.9684 23.4375 37.5934 22.6563Z" fill="white"/>
</svg>
