<svg width="92" height="92" viewBox="0 0 92 92" fill="none" xmlns="http://www.w3.org/2000/svg">
<g clip-path="url(#clip0_213_377)">
<path d="M70.1749 49.5388H45.6055C44.289 49.4332 42.9854 49.8714 41.9771 50.7587C40.9687 51.646 40.3366 52.9109 40.2176 54.2796L40.2155 54.2988C40.3362 55.6855 40.981 56.9656 42.0082 57.8578C43.0354 58.75 44.3608 59.1812 45.6933 59.0566L45.6749 59.0588H70.1749C70.3291 59.0736 70.4846 59.0562 70.6323 59.0077C70.78 58.9592 70.9169 58.8805 71.035 58.7762C71.1531 58.6719 71.25 58.5441 71.32 58.4003C71.39 58.2565 71.4318 58.0997 71.4428 57.9389V50.6629C71.4028 50.3519 71.2557 50.0666 71.029 49.8599C70.8022 49.6532 70.5111 49.5391 70.2096 49.5388H70.1729H70.1749ZM45.6055 57.2695C45.0281 57.2695 44.4636 57.0913 43.9835 56.7574C43.5034 56.4235 43.1291 55.9489 42.9082 55.3936C42.6872 54.8384 42.6294 54.2274 42.742 53.6379C42.8547 53.0485 43.1327 52.507 43.5411 52.082C43.9494 51.6571 44.4696 51.3676 45.0359 51.2504C45.6023 51.1331 46.1893 51.1933 46.7228 51.4233C47.2563 51.6533 47.7122 52.0428 48.0331 52.5425C48.3539 53.0422 48.5251 53.6297 48.5251 54.2308V54.2393C48.5251 55.9138 47.2205 57.2695 45.6137 57.2695H45.6055ZM28.7271 21V34.6085H31.5201V28.7945C31.8018 28.8668 32.1285 28.9135 32.4633 28.9263H32.4715C33.4807 28.9234 34.4478 28.5051 35.1617 27.7625C35.8755 27.0199 36.278 26.0135 36.2812 24.9631C36.2745 24.6181 36.2292 24.2751 36.1465 23.941L36.1526 23.9729H51.4488C51.3751 24.2949 51.3327 24.6238 51.3222 24.9546V24.9631C51.3249 26.0135 51.7268 27.0202 52.4403 27.7631C53.1537 28.5061 54.1207 28.925 55.1299 28.9284C55.4729 28.9156 55.8016 28.8689 56.116 28.7881L56.0833 28.7945V34.6085H58.9437V21H28.7271ZM60.1463 32.9553H63.7008C63.4345 32.1501 62.9679 31.4329 62.3485 30.8767C61.7291 30.3205 60.979 29.9452 60.1748 29.789L60.1463 29.7848V32.9553Z" fill="#5846DF"/>
<path d="M45.42 47.953H69.7934V40.2244C69.6891 39.0779 69.1561 38.02 68.3094 37.2787C67.4627 36.5374 66.3701 36.172 65.267 36.2613H65.2813H26.5713C26.5383 36.2238 26.4933 36.2004 26.4447 36.1954C26.1763 36.0642 25.9466 35.8606 25.7793 35.6057C25.612 35.3509 25.5132 35.0541 25.4933 34.7462V34.7419C25.5258 34.3597 25.6697 33.9969 25.9058 33.7022C26.1419 33.4075 26.4589 33.1949 26.8142 33.0929L26.8265 33.0908V29.7227C24.158 29.8544 22 33.8175 22 38.773V68.0385C22.1053 69.1836 22.638 70.24 23.4837 70.9806C24.3293 71.7213 25.4203 72.0871 26.5223 71.9995H26.508H65.218C66.3153 72.0838 67.4007 71.7183 68.2426 70.981C69.0845 70.2437 69.6161 69.1931 69.724 68.0534L69.726 68.0364V60.3078H45.4873C41.553 60.3078 38.3783 57.5325 38.3783 54.1644C38.3783 50.7304 41.551 47.9552 45.422 47.9552L45.42 47.953Z" fill="#5846DF"/>
</g>
<circle cx="46" cy="46" r="45.5" stroke="#5846DF"/>
<defs>
<clipPath id="clip0_213_377">
<rect width="49" height="51" fill="white" transform="translate(22 21)"/>
</clipPath>
</defs>
</svg>
