<svg width="22" height="35" viewBox="0 0 22 35" fill="none" xmlns="http://www.w3.org/2000/svg">
<path d="M20.1807 24.6768C20.2127 24.7274 20.238 24.7875 20.2553 24.8537C20.2726 24.9198 20.2815 24.9907 20.2815 25.0623C20.2815 25.1339 20.2726 25.2048 20.2553 25.2709C20.238 25.3371 20.2127 25.3972 20.1807 25.4478L18.1182 28.7167C18.0537 28.8189 17.9662 28.8764 17.875 28.8764C17.7838 28.8764 17.6963 28.8189 17.6318 28.7167C17.5673 28.6145 17.5311 28.4758 17.5311 28.3312C17.5311 28.1867 17.5673 28.048 17.6318 27.9458L19.1073 25.6071H17.2683C16.3382 25.6055 15.4217 25.2528 14.5947 24.5783C13.7677 23.9037 13.0539 22.9266 12.5125 21.728L8.92805 13.7749C8.45044 12.7171 7.82068 11.8548 7.09093 11.2595C6.36118 10.6643 5.55244 10.3532 4.73172 10.3521H2.75C2.65883 10.3521 2.5714 10.2947 2.50693 10.1925C2.44247 10.0903 2.40625 9.95173 2.40625 9.80723C2.40625 9.66273 2.44247 9.52416 2.50693 9.42198C2.5714 9.31981 2.65883 9.26241 2.75 9.26241H4.73172C5.66182 9.26401 6.57831 9.61669 7.40532 10.2913C8.23234 10.9658 8.94609 11.9429 9.4875 13.1416L13.072 21.0946C13.5496 22.1525 14.1793 23.0147 14.9091 23.61C15.6388 24.2052 16.4476 24.5163 17.2683 24.5175H19.1073L17.6318 22.1788C17.5673 22.0766 17.5311 21.9379 17.5311 21.7933C17.5311 21.6488 17.5673 21.5101 17.6318 21.4079C17.6963 21.3057 17.7838 21.2482 17.875 21.2482C17.9662 21.2482 18.0537 21.3057 18.1182 21.4079L20.1807 24.6768ZM12.4902 14.129C12.5269 14.1706 12.5684 14.2003 12.6124 14.2165C12.6564 14.2326 12.7019 14.2349 12.7465 14.2231C12.791 14.2114 12.8336 14.1858 12.8719 14.1479C12.9102 14.1101 12.9435 14.0606 12.9697 14.0024L13.072 13.7749C13.5496 12.7171 14.1793 11.8548 14.9091 11.2595C15.6388 10.6643 16.4476 10.3532 17.2683 10.3521H19.1073L17.6318 12.6907C17.5673 12.7929 17.5311 12.9316 17.5311 13.0762C17.5311 13.2207 17.5673 13.3594 17.6318 13.4616C17.6963 13.5639 17.7838 13.6213 17.875 13.6213C17.9662 13.6213 18.0537 13.5639 18.1182 13.4616L20.1807 10.1927C20.2127 10.1421 20.238 10.082 20.2553 10.0159C20.2726 9.94973 20.2815 9.87883 20.2815 9.80723C20.2815 9.73563 20.2726 9.66474 20.2553 9.5986C20.238 9.53246 20.2127 9.47237 20.1807 9.42177L18.1182 6.15283C18.0537 6.0506 17.9662 5.99316 17.875 5.99316C17.7838 5.99316 17.6963 6.0506 17.6318 6.15283C17.5673 6.25506 17.5311 6.39371 17.5311 6.53829C17.5311 6.68287 17.5673 6.82152 17.6318 6.92375L19.1073 9.26241H17.2683C16.3382 9.26401 15.4217 9.61669 14.5947 10.2913C13.7677 10.9658 13.0539 11.9429 12.5125 13.1416L12.4102 13.369C12.384 13.4272 12.3652 13.4931 12.3551 13.5628C12.3449 13.6325 12.3435 13.7047 12.3509 13.7753C12.3583 13.8458 12.3744 13.9134 12.3983 13.9741C12.4222 14.0348 12.4534 14.0875 12.4902 14.129ZM9.50985 20.7405C9.47311 20.6989 9.43157 20.6692 9.38759 20.653C9.34361 20.6369 9.29806 20.6346 9.25353 20.6464C9.209 20.6582 9.16637 20.6837 9.12807 20.7216C9.08977 20.7595 9.05655 20.8089 9.03031 20.8671L8.92805 21.0946C8.45044 22.1525 7.82068 23.0147 7.09093 23.61C6.36118 24.2052 5.55244 24.5163 4.73172 24.5175H2.75C2.65883 24.5175 2.5714 24.5749 2.50693 24.677C2.44247 24.7792 2.40625 24.9178 2.40625 25.0623C2.40625 25.2068 2.44247 25.3454 2.50693 25.4475C2.5714 25.5497 2.65883 25.6071 2.75 25.6071H4.73172C5.66182 25.6055 6.57831 25.2528 7.40532 24.5783C8.23234 23.9037 8.94609 22.9266 9.4875 21.728L9.58977 21.5005C9.61601 21.4423 9.63475 21.3764 9.64494 21.3067C9.65512 21.237 9.65654 21.1648 9.64912 21.0943C9.6417 21.0237 9.62558 20.9561 9.60168 20.8954C9.57779 20.8347 9.54658 20.7821 9.50985 20.7405Z" fill="#5261DC"/>
</svg>
