<svg width="35" height="36" viewBox="0 0 35 36" fill="none" xmlns="http://www.w3.org/2000/svg">
<path d="M13.125 4.41504H5.83333C5.02792 4.41504 4.375 5.07394 4.375 5.88674V16.1887C4.375 17.0015 5.02792 17.6604 5.83333 17.6604H13.125C13.9304 17.6604 14.5833 17.0015 14.5833 16.1887V5.88674C14.5833 5.07394 13.9304 4.41504 13.125 4.41504Z" stroke="white" stroke-width="2" stroke-linecap="round" stroke-linejoin="round"/>
<path d="M29.167 4.41504H21.8753C21.0699 4.41504 20.417 5.07394 20.417 5.88674V10.3018C20.417 11.1146 21.0699 11.7736 21.8753 11.7736H29.167C29.9724 11.7736 30.6253 11.1146 30.6253 10.3018V5.88674C30.6253 5.07394 29.9724 4.41504 29.167 4.41504Z" stroke="white" stroke-width="2" stroke-linecap="round" stroke-linejoin="round"/>
<path d="M29.167 17.6602H21.8753C21.0699 17.6602 20.417 18.3191 20.417 19.1319V29.4338C20.417 30.2466 21.0699 30.9055 21.8753 30.9055H29.167C29.9724 30.9055 30.6253 30.2466 30.6253 29.4338V19.1319C30.6253 18.3191 29.9724 17.6602 29.167 17.6602Z" stroke="white" stroke-width="2" stroke-linecap="round" stroke-linejoin="round"/>
<path d="M13.125 23.5469H5.83333C5.02792 23.5469 4.375 24.2058 4.375 25.0186V29.4337C4.375 30.2465 5.02792 30.9054 5.83333 30.9054H13.125C13.9304 30.9054 14.5833 30.2465 14.5833 29.4337V25.0186C14.5833 24.2058 13.9304 23.5469 13.125 23.5469Z" stroke="white" stroke-width="2" stroke-linecap="round" stroke-linejoin="round"/>
</svg>
