<svg width="45" height="45" viewBox="0 0 45 45" fill="none" xmlns="http://www.w3.org/2000/svg">
<path d="M38.9514 28.1774L30.6475 24.4562C30.2712 24.2949 29.8607 24.2301 29.4531 24.2676C29.0455 24.305 28.6537 24.4435 28.3131 24.6706C28.2785 24.6928 28.2456 24.7175 28.2147 24.7444L23.8746 28.4358C23.8296 28.4604 23.7795 28.4741 23.7282 28.476C23.677 28.4778 23.626 28.4677 23.5793 28.4464C20.7897 27.0999 17.8998 24.2276 16.5481 21.4767C16.5256 21.4307 16.5139 21.3802 16.5139 21.329C16.5139 21.2778 16.5256 21.2273 16.5481 21.1813L20.2518 16.7868C20.2784 16.7543 20.303 16.7203 20.3256 16.6849C20.5495 16.343 20.6848 15.9507 20.7192 15.5435C20.7535 15.1362 20.6859 14.7268 20.5225 14.3522L16.8276 6.0624C16.6177 5.57304 16.2548 5.16493 15.7934 4.89933C15.3319 4.63373 14.7967 4.52496 14.2682 4.58935C11.9711 4.89134 9.8626 6.0194 8.33666 7.76273C6.81072 9.50606 5.97177 11.7454 5.97658 14.0622C5.97658 27.8259 17.1738 39.0231 30.9375 39.0231C33.2542 39.0276 35.4934 38.1885 37.2366 36.6626C38.9799 35.1368 40.108 33.0285 40.4104 30.7315C40.4746 30.2055 40.3673 29.6727 40.1045 29.2125C39.8416 28.7523 39.4372 28.3893 38.9514 28.1774ZM30.9375 36.9138C18.3375 36.9138 8.08596 26.6622 8.08596 14.0622C8.08008 12.2586 8.73108 10.5145 9.91733 9.15582C11.1036 7.79715 12.7439 6.91685 14.5319 6.67939H14.5723C14.6431 6.68071 14.7119 6.70341 14.7696 6.7445C14.8273 6.78559 14.8713 6.84316 14.8957 6.90967L18.6047 15.1907C18.6259 15.2368 18.6368 15.2868 18.6368 15.3375C18.6368 15.3882 18.6259 15.4382 18.6047 15.4843L14.894 19.8894C14.8663 19.9208 14.841 19.9543 14.8184 19.9895C14.5862 20.344 14.4495 20.7524 14.4214 21.1753C14.3934 21.5981 14.475 22.021 14.6584 22.403C16.2176 25.5952 19.4344 28.7874 22.6617 30.3466C23.046 30.5289 23.471 30.6086 23.8952 30.5778C24.3194 30.547 24.7284 30.4068 25.0822 30.1708C25.1156 30.1479 25.149 30.1233 25.1807 30.097L29.519 26.4056C29.5618 26.3825 29.6091 26.3691 29.6577 26.366C29.7062 26.363 29.7548 26.3705 29.8002 26.388L38.1059 30.1093C38.1737 30.1382 38.2308 30.1877 38.2689 30.2507C38.3071 30.3138 38.3245 30.3873 38.3186 30.4608C38.0824 32.2496 37.2029 33.8912 35.8445 35.0787C34.4861 36.2663 32.7418 36.9186 30.9375 36.9138Z" fill="white"/>
</svg>
