<svg width="40" height="32" viewBox="0 0 40 32" fill="none" xmlns="http://www.w3.org/2000/svg">
<path fill-rule="evenodd" clip-rule="evenodd" d="M39.3689 30.4946C39.328 30.4773 39.2855 30.4687 39.2392 30.4687C39.192 30.4687 39.1487 30.4773 39.1079 30.4946C39.067 30.5111 39.0316 30.5347 39.0017 30.5646C38.9719 30.5937 38.9483 30.6283 38.931 30.6684C38.9137 30.7077 38.905 30.7501 38.905 30.7949C38.905 30.8398 38.9137 30.8822 38.931 30.9215C38.9483 30.9608 38.9719 30.9954 39.0017 31.0253C39.0316 31.0544 39.067 31.078 39.1079 31.0953C39.1487 31.1126 39.192 31.1212 39.2392 31.1212C39.2855 31.1212 39.328 31.1126 39.3689 31.0953C39.409 31.078 39.4436 31.0544 39.4742 31.0253C39.5041 30.9954 39.5277 30.9608 39.545 30.9215C39.5623 30.8822 39.5709 30.8398 39.5709 30.7949C39.5709 30.7501 39.5623 30.7077 39.545 30.6684C39.5277 30.6283 39.5041 30.5937 39.4742 30.5646C39.4436 30.5347 39.409 30.5111 39.3689 30.4946ZM39.2392 31.0497C39.2745 31.0497 39.3076 31.0426 39.3374 31.0292C39.3681 31.0159 39.3948 30.9978 39.4176 30.975C39.4404 30.9522 39.4585 30.9254 39.4719 30.894C39.4844 30.8633 39.4915 30.8303 39.4915 30.7949C39.4915 30.7596 39.4844 30.7265 39.4719 30.6959C39.4585 30.6652 39.4404 30.6377 39.4176 30.6149C39.3948 30.5921 39.3681 30.574 39.3374 30.5607C39.3076 30.5481 39.2745 30.5418 39.2392 30.5418C39.2038 30.5418 39.17 30.5481 39.1393 30.5607C39.1079 30.574 39.0803 30.5921 39.0575 30.6149C39.0347 30.6377 39.0167 30.6652 39.0041 30.6959C38.9907 30.7265 38.9844 30.7596 38.9844 30.7949C38.9844 30.8303 38.9907 30.8633 39.0041 30.894C39.0167 30.9254 39.0347 30.9522 39.0575 30.975C39.0803 30.9978 39.1079 31.0159 39.1393 31.0292C39.17 31.0426 39.2038 31.0497 39.2392 31.0497ZM39.3484 30.6684C39.3272 30.6511 39.2973 30.6424 39.2588 30.6424H39.1189V30.9451H39.1833V30.8319H39.2132L39.3052 30.9451H39.3822L39.2832 30.8311C39.3146 30.8272 39.3382 30.817 39.3547 30.8012C39.372 30.7847 39.3799 30.7643 39.3799 30.7391C39.3799 30.7093 39.3697 30.6857 39.3484 30.6684ZM39.1833 30.78V30.699H39.258C39.2745 30.699 39.2887 30.7022 39.2989 30.7093C39.3083 30.7155 39.3138 30.7258 39.3138 30.7391C39.3138 30.7525 39.3083 30.7635 39.2989 30.7698C39.2887 30.7761 39.2745 30.78 39.258 30.78H39.1833ZM8.60901 29.3028C8.60901 28.7257 8.98716 28.2517 9.60509 28.2517C10.1955 28.2517 10.5941 28.7053 10.5941 29.3028C10.5941 29.9003 10.1955 30.3539 9.60509 30.3539C8.98716 30.3539 8.60901 29.8798 8.60901 29.3028ZM11.2671 27.6613V29.3028V30.9443H10.5532V30.5457C10.3268 30.8413 9.98324 31.0269 9.51625 31.0269C8.59564 31.0269 7.87393 30.3059 7.87393 29.3028C7.87393 28.3004 8.59564 27.5787 9.51625 27.5787C9.98324 27.5787 10.3268 27.7642 10.5532 28.0598V27.6613H11.2671ZM35.39 29.3028C35.39 28.7257 35.7682 28.2517 36.3861 28.2517C36.9773 28.2517 37.3751 28.7053 37.3751 29.3028C37.3751 29.9003 36.9773 30.3539 36.3861 30.3539C35.7682 30.3539 35.39 29.8798 35.39 29.3028ZM38.0489 26.3428V29.3028V30.9443H37.3343V30.5457C37.1078 30.8413 36.7643 31.0269 36.2973 31.0269C35.3767 31.0269 34.655 30.3059 34.655 29.3028C34.655 28.3004 35.3767 27.5787 36.2973 27.5787C36.7643 27.5787 37.1078 27.7642 37.3343 28.0598V26.3428H38.0489ZM20.128 28.2179C20.5879 28.2179 20.8836 28.5064 20.959 29.0143H19.2554C19.3316 28.5402 19.6194 28.2179 20.128 28.2179ZM18.5069 29.3028C18.5069 28.2792 19.1799 27.5787 20.1422 27.5787C21.062 27.5787 21.6941 28.2792 21.7012 29.3028C21.7012 29.3987 21.6941 29.4883 21.687 29.5772H19.2491C19.3521 30.1684 19.7711 30.3814 20.231 30.3814C20.5604 30.3814 20.9111 30.2572 21.1862 30.0379L21.5361 30.567C21.1375 30.9034 20.6846 31.0269 20.1901 31.0269C19.2074 31.0269 18.5069 30.3468 18.5069 29.3028ZM28.7618 29.3028C28.7618 28.7257 29.14 28.2517 29.7579 28.2517C30.3483 28.2517 30.7469 28.7053 30.7469 29.3028C30.7469 29.9003 30.3483 30.3539 29.7579 30.3539C29.14 30.3539 28.7618 29.8798 28.7618 29.3028ZM31.4199 27.6613V29.3028V30.9443H30.706V30.5457C30.4788 30.8413 30.136 31.0269 29.6691 31.0269C28.7484 31.0269 28.0267 30.3059 28.0267 29.3028C28.0267 28.3004 28.7484 27.5787 29.6691 27.5787C30.136 27.5787 30.4788 27.7642 30.706 28.0598V27.6613H31.4199ZM24.7303 29.3028C24.7303 30.2989 25.4237 31.0269 26.4819 31.0269C26.9764 31.0269 27.3058 30.9168 27.6627 30.6353L27.32 30.0583C27.0519 30.2509 26.7704 30.3539 26.4607 30.3539C25.8907 30.3468 25.4717 29.9349 25.4717 29.3028C25.4717 28.6707 25.8907 28.2587 26.4607 28.2517C26.7704 28.2517 27.0519 28.3547 27.32 28.5473L27.6627 27.9702C27.3058 27.6888 26.9764 27.5787 26.4819 27.5787C25.4237 27.5787 24.7303 28.3067 24.7303 29.3028ZM33.0685 28.0598C33.254 27.7713 33.5221 27.5787 33.934 27.5787C34.0787 27.5787 34.2847 27.6062 34.4427 27.6683L34.2226 28.3413C34.0716 28.2792 33.9207 28.2587 33.776 28.2587C33.309 28.2587 33.0755 28.5606 33.0755 29.1039V30.9443H32.3609V27.6613H33.0685V28.0598ZM14.7978 27.9223C14.4542 27.6958 13.9809 27.5787 13.4589 27.5787C12.6271 27.5787 12.0918 27.9773 12.0918 28.6298C12.0918 29.1652 12.4904 29.4954 13.2246 29.5984L13.5619 29.6463C13.9534 29.7014 14.1382 29.8044 14.1382 29.9899C14.1382 30.2438 13.8772 30.3885 13.3897 30.3885C12.8952 30.3885 12.5383 30.2305 12.2977 30.0449L11.9613 30.6008C12.3528 30.8893 12.8473 31.0269 13.3827 31.0269C14.3308 31.0269 14.8803 30.5803 14.8803 29.9553C14.8803 29.3783 14.4479 29.0764 13.7333 28.9734L13.3968 28.9246C13.0878 28.8838 12.8402 28.8224 12.8402 28.6023C12.8402 28.3617 13.0737 28.2179 13.4652 28.2179C13.8842 28.2179 14.2899 28.3759 14.4888 28.4993L14.7978 27.9223ZM23.1438 28.0598C23.3286 27.7713 23.5966 27.5787 24.0086 27.5787C24.1532 27.5787 24.3592 27.6062 24.5172 27.6683L24.2971 28.3413C24.1462 28.2792 23.9952 28.2587 23.8506 28.2587C23.3836 28.2587 23.1501 28.5606 23.1501 29.1039V30.9443H22.4362V27.6613H23.1438V28.0598ZM17.9165 27.6613H16.7491V26.6652H16.0273V27.6613H15.3615V28.3138H16.0273V29.8114C16.0273 30.5732 16.323 31.0269 17.1673 31.0269C17.4771 31.0269 17.834 30.931 18.0604 30.7729L17.8544 30.1613C17.6414 30.2847 17.4079 30.3468 17.2223 30.3468C16.8654 30.3468 16.7491 30.1267 16.7491 29.7973V28.3138H17.9165V27.6613ZM7.24264 28.8838V30.9443H6.52093V29.1172C6.52093 28.5606 6.28743 28.2517 5.80001 28.2517C5.32594 28.2517 4.99654 28.5543 4.99654 29.1243V30.9443H4.27483V29.1172C4.27483 28.5606 4.03504 28.2517 3.56098 28.2517C3.07277 28.2517 2.75672 28.5543 2.75672 29.1243V30.9443H2.0358L2.0358 27.6613H2.75044L2.75044 28.0661C3.01852 27.6817 3.36129 27.5787 3.71193 27.5787C4.21351 27.5787 4.57043 27.7988 4.79685 28.1628C5.09952 27.7021 5.53192 27.5716 5.95095 27.5787C6.74813 27.5858 7.24264 28.1078 7.24264 28.8838Z" fill="white"/>
<path fill-rule="evenodd" clip-rule="evenodd" d="M38.83 19.6281V20.0259H38.742V19.6281H38.5816V19.5471H38.9904V19.6281H38.83ZM39.6233 19.5463V20.0259H39.5352V19.6635L39.4 19.9764H39.308L39.1728 19.6642V20.0259H39.0839V19.5463H39.2097L39.3536 19.8757L39.4983 19.5463H39.6233Z" fill="white"/>
<path d="M25.4096 22.089H14.5906V2.64537H25.4096V22.089Z" fill="#FF5F00"/>
<path d="M15.2832 12.3657C15.2832 8.42151 17.13 4.90809 20.0058 2.64391C17.9028 0.988225 15.2486 3.81591e-06 12.3642 3.81591e-06C5.53545 3.81591e-06 0 5.53625 0 12.3657C0 19.1952 5.53545 24.7315 12.3642 24.7315C15.2486 24.7315 17.9028 23.7433 20.0058 22.0876C17.13 19.8234 15.2832 16.31 15.2832 12.3657Z" fill="#EB001B"/>
<path d="M40.0002 12.3657C40.0002 19.1952 34.4648 24.7315 27.6361 24.7315C24.7516 24.7315 22.0975 23.7433 19.9937 22.0876C22.8703 19.8234 24.717 16.31 24.717 12.3657C24.717 8.42151 22.8703 4.90809 19.9937 2.64391C22.0975 0.988225 24.7516 3.81591e-06 27.6361 3.81591e-06C34.4648 3.81591e-06 40.0002 5.53625 40.0002 12.3657Z" fill="#F79E1B"/>
</svg>
