<svg width="102" height="88" viewBox="0 0 102 88" fill="none" xmlns="http://www.w3.org/2000/svg">
<path d="M100.22 32.2569L98.8874 31.082C99.7496 29.5025 100.045 27.7289 99.7349 25.9976C99.4246 24.2663 98.5231 22.6594 97.1506 21.3913C96.2141 20.5697 95.0897 19.9336 93.8523 19.5256C92.6149 19.1176 91.2929 18.9469 89.9748 19.0251C88.736 19.089 87.5196 19.344 86.3807 19.7785V0H0V87.0339H86.3807V43.0274L95.9135 34.6232L96.7279 35.3385C96.8343 35.4322 96.9188 35.5435 96.9764 35.666C97.034 35.7885 97.0636 35.9198 97.0636 36.0524C97.0636 36.1851 97.034 36.3164 96.9764 36.4389C96.9188 36.5614 96.8343 36.6727 96.7279 36.7664L89.4688 43.1688C89.0057 43.5767 88.7454 44.1301 88.7451 44.7073C88.7448 45.2844 89.0046 45.838 89.4673 46.2463C89.93 46.6546 90.5577 46.8841 91.2123 46.8843C91.867 46.8846 92.4949 46.6556 92.958 46.2476L100.22 39.8452C101.36 38.8382 102 37.4737 102 36.0511C102 34.6285 101.36 33.264 100.22 32.2569ZM18.5102 16.8628H67.8767V21.2145H18.5102V16.8628ZM18.5102 27.7421H67.8767V32.0938H18.5102V27.7421ZM18.5102 38.6213H50.9029V42.973H18.5102V38.6213ZM64.1439 75.8718H40.0683C37.2856 75.8718 34.6819 75.6406 33.2998 73.6307C31.8837 71.5772 33.2905 69.192 34.3178 67.4458C34.4998 67.1385 34.0957 66.7577 33.633 67.1793C32.2755 68.4087 30.116 70.6226 28.3792 72.4013C26.5436 74.2834 25.8155 75.0205 25.4268 75.3306C25.0155 75.7517 24.457 76.0402 23.8392 76.1505C23.2213 76.2609 22.5795 76.1867 22.0147 75.9398C21.5077 75.6816 21.1105 75.2843 20.8838 74.8084C20.6571 74.3325 20.6133 73.8042 20.7591 73.3043C20.8887 72.6244 23.0914 65.0578 25.0874 58.2556C22.4343 62.4088 14.0122 74.8464 13.6173 75.4312C13.3236 75.8651 12.8464 76.1783 12.2907 76.302C11.735 76.4257 11.1463 76.3497 10.6541 76.0908C10.162 75.8318 9.80669 75.4111 9.66639 74.9212C9.52609 74.4312 9.61228 73.9123 9.90602 73.4784C10.014 73.3233 20.5648 57.7361 21.8944 55.4732C22.3279 54.5687 23.1346 53.8429 24.1517 53.4426C25.1687 53.0422 26.3202 52.9971 27.3734 53.3164C28.3242 53.6571 29.0931 54.3028 29.5253 55.1235C29.9575 55.9441 30.0209 56.8787 29.7026 57.7388C28.592 61.5139 27.4598 65.3869 26.5868 68.4005C27.9966 66.9644 29.4713 65.4903 30.5356 64.5248C31.3547 63.6566 32.474 63.049 33.722 62.7951C34.9701 62.5411 36.2782 62.6548 37.446 63.1186C38.1717 63.4444 38.753 63.9747 39.0973 64.6253C39.4417 65.2758 39.5294 66.0092 39.3464 66.7088C39.0517 67.5752 38.6504 68.4107 38.1494 69.2001C37.3257 70.7096 37.7175 72.0614 40.0683 72.0614H64.1408C64.7135 72.0614 65.2628 72.2619 65.6678 72.619C66.0728 72.976 66.3003 73.4603 66.3003 73.9652C66.3003 74.4702 66.0728 74.9544 65.6678 75.3115C65.2628 75.6685 64.7135 75.8691 64.1408 75.8691L64.1439 75.8718ZM57.7239 62.1368L49.6905 64.0053C49.5736 64.0345 49.45 64.0353 49.3326 64.0075C49.2153 63.9797 49.1087 63.9244 49.0242 63.8475C48.9355 63.7738 48.8717 63.68 48.8395 63.5763C48.8074 63.4727 48.8083 63.3633 48.8421 63.2601L50.8906 56.1913L71.2209 38.2677L78.008 44.2513L57.7239 62.1368ZM93.0968 30.9487L81.4971 41.1752L74.7101 35.1916L86.3098 24.9651C87.3471 24.0248 88.7431 23.4569 90.2278 23.3713L90.5054 23.3632C91.088 23.354 91.6668 23.4471 92.2081 23.6372C92.7494 23.8272 93.2424 24.1104 93.6583 24.4701C94.55 25.3981 94.991 26.5984 94.8859 27.811C94.7808 29.0237 94.138 30.151 93.0968 30.9487Z" fill="#5846DF"/>
</svg>
