<svg width="35" height="35" viewBox="0 0 35 35" fill="none" xmlns="http://www.w3.org/2000/svg">
<path d="M13.4896 32.0837L12.9062 27.417C12.5903 27.2955 12.2928 27.1496 12.0138 26.9795C11.7347 26.8094 11.461 26.6271 11.1927 26.4326L6.85417 28.2555L2.84375 21.3284L6.59896 18.4847C6.57465 18.3146 6.5625 18.1507 6.5625 17.9932V17.0089C6.5625 16.8504 6.57465 16.6861 6.59896 16.5159L2.84375 13.6722L6.85417 6.74512L11.1927 8.56803C11.4601 8.37359 11.7396 8.1913 12.0312 8.02116C12.3229 7.85102 12.6146 7.70519 12.9062 7.58366L13.4896 2.91699H21.5104L22.0937 7.58366C22.4097 7.70519 22.7077 7.85102 22.9877 8.02116C23.2677 8.1913 23.5409 8.37359 23.8073 8.56803L28.1458 6.74512L32.1562 13.6722L28.401 16.5159C28.4253 16.6861 28.4375 16.8504 28.4375 17.0089V17.9918C28.4375 18.1503 28.4132 18.3146 28.3646 18.4847L32.1198 21.3284L28.1094 28.2555L23.8073 26.4326C23.5399 26.6271 23.2604 26.8094 22.9688 26.9795C22.6771 27.1496 22.3854 27.2955 22.0937 27.417L21.5104 32.0837H13.4896ZM17.5729 22.6045C18.9826 22.6045 20.1858 22.1062 21.1823 21.1097C22.1788 20.1132 22.6771 18.91 22.6771 17.5003C22.6771 16.0906 22.1788 14.8875 21.1823 13.8909C20.1858 12.8944 18.9826 12.3962 17.5729 12.3962C16.1389 12.3962 14.9294 12.8944 13.9446 13.8909C12.9597 14.8875 12.4678 16.0906 12.4688 17.5003C12.4688 18.91 12.9612 20.1132 13.946 21.1097C14.9309 22.1062 16.1399 22.6045 17.5729 22.6045Z" fill="#6B6B6B"/>
</svg>
