<svg width="90" height="90" viewBox="0 0 90 90" fill="none" xmlns="http://www.w3.org/2000/svg">
<circle cx="45" cy="45" r="45" fill="#5846DF"/>
<g clip-path="url(#clip0_700_79)">
<path d="M29.4999 44.083C29.9778 44.0835 30.4374 44.2706 30.7849 44.606C31.1324 44.9413 31.3416 45.3997 31.3696 45.8873C31.3976 46.375 31.2424 46.8552 30.9356 47.2299C30.6289 47.6045 30.1938 47.8452 29.7193 47.9029L29.4999 47.9163H27.6249C27.147 47.9158 26.6873 47.7287 26.3398 47.3934C25.9923 47.058 25.7832 46.5997 25.7552 46.112C25.7272 45.6243 25.8824 45.1441 26.1891 44.7695C26.4959 44.3949 26.9309 44.1541 27.4055 44.0964L27.6249 44.083H29.4999ZM44.4999 26.833C44.9591 26.8331 45.4024 27.0054 45.7456 27.3174C46.0888 27.6293 46.308 28.0592 46.3618 28.5254L46.3749 28.7497V30.6663C46.3743 31.1549 46.1914 31.6247 45.8633 31.98C45.5352 32.3352 45.0868 32.549 44.6098 32.5776C44.1327 32.6062 43.6629 32.4475 43.2964 32.134C42.93 31.8205 42.6944 31.3757 42.638 30.8906L42.6249 30.6663V28.7497C42.6249 28.2413 42.8224 27.7538 43.1741 27.3944C43.5257 27.0349 44.0026 26.833 44.4999 26.833ZM61.3749 44.083C61.8528 44.0835 62.3124 44.2706 62.6599 44.606C63.0074 44.9413 63.2166 45.3997 63.2446 45.8873C63.2726 46.375 63.1174 46.8552 62.8106 47.2299C62.5039 47.6045 62.0688 47.8452 61.5943 47.9029L61.3749 47.9163H59.4999C59.022 47.9158 58.5623 47.7287 58.2148 47.3934C57.8673 47.058 57.6582 46.5997 57.6302 46.112C57.6022 45.6243 57.7574 45.1441 58.0641 44.7695C58.3709 44.3949 58.8059 44.1541 59.2805 44.0964L59.4999 44.083H61.3749ZM31.1743 32.3779C31.4971 32.0479 31.9267 31.8497 32.3823 31.8204C32.838 31.7911 33.2885 31.9328 33.6493 32.2188L33.8255 32.3779L35.138 33.7196C35.4743 34.0645 35.6695 34.5273 35.6841 35.0141C35.6986 35.5008 35.5313 35.975 35.2163 36.3402C34.9012 36.7055 34.462 36.9344 33.9877 36.9806C33.5135 37.0268 33.0399 36.8867 32.663 36.5888L32.4868 36.4298L31.1743 35.0881C30.8227 34.7287 30.6253 34.2412 30.6253 33.733C30.6253 33.2248 30.8227 32.7374 31.1743 32.3779ZM55.1743 32.3779C55.5117 32.0342 55.9644 31.8346 56.4406 31.8197C56.9168 31.8049 57.3806 31.9758 57.7379 32.2979C58.0952 32.62 58.3192 33.069 58.3644 33.5538C58.4096 34.0385 58.2725 34.5227 57.9811 34.9079L57.8255 35.0881L56.513 36.4298C56.1756 36.7735 55.7228 36.9731 55.2467 36.9879C54.7705 37.0028 54.3067 36.8318 53.9494 36.5098C53.592 36.1877 53.3681 35.7387 53.3229 35.2539C53.2777 34.7692 53.4147 34.285 53.7061 33.8998L53.8618 33.7196L55.1743 32.3779ZM48.2499 57.4997C48.7472 57.4997 49.2241 57.7016 49.5757 58.0611C49.9273 58.4205 50.1249 58.908 50.1249 59.4163C50.1249 60.9413 49.5322 62.4039 48.4774 63.4822C47.4225 64.5605 45.9917 65.1663 44.4999 65.1663C43.008 65.1663 41.5773 64.5605 40.5224 63.4822C39.4675 62.4039 38.8749 60.9413 38.8749 59.4163C38.8749 58.9469 39.0435 58.4938 39.3487 58.143C39.6539 57.7921 40.0744 57.568 40.5305 57.5131L40.7499 57.4997H48.2499ZM44.4999 34.4997C46.8611 34.4997 49.1624 35.2591 51.0779 36.6704C52.9934 38.0817 54.4259 40.0733 55.1726 42.3631C55.9192 44.6528 55.9422 47.1247 55.2382 49.4286C54.5341 51.7325 53.1388 53.7515 51.2499 55.1997C50.9915 55.3981 50.6872 55.5249 50.3668 55.5677L50.1249 55.583H38.8749C38.4692 55.583 38.0744 55.4485 37.7499 55.1997C35.8609 53.7515 34.4656 51.7325 33.7616 49.4286C33.0576 47.1247 33.0805 44.6528 33.8272 42.3631C34.5739 40.0733 36.0064 38.0817 37.9219 36.6704C39.8374 35.2591 42.1387 34.4997 44.4999 34.4997Z" fill="white"/>
</g>
<defs>
<clipPath id="clip0_700_79">
<rect width="45" height="46" fill="white" transform="translate(22 23)"/>
</clipPath>
</defs>
</svg>
