<svg width="30" height="30" viewBox="0 0 30 30" fill="none" xmlns="http://www.w3.org/2000/svg">
<path d="M10.5625 27.5L10.0625 23.5C9.79167 23.3958 9.53667 23.2708 9.2975 23.125C9.05833 22.9792 8.82375 22.8229 8.59375 22.6562L4.875 24.2188L1.4375 18.2812L4.65625 15.8438C4.63542 15.6979 4.625 15.5575 4.625 15.4225V14.5788C4.625 14.4429 4.63542 14.3021 4.65625 14.1562L1.4375 11.7188L4.875 5.78125L8.59375 7.34375C8.82292 7.17708 9.0625 7.02083 9.3125 6.875C9.5625 6.72917 9.8125 6.60417 10.0625 6.5L10.5625 2.5H17.4375L17.9375 6.5C18.2083 6.60417 18.4637 6.72917 18.7038 6.875C18.9438 7.02083 19.1779 7.17708 19.4063 7.34375L23.125 5.78125L26.5625 11.7188L23.3438 14.1562C23.3646 14.3021 23.375 14.4429 23.375 14.5788V15.4212C23.375 15.5571 23.3542 15.6979 23.3125 15.8438L26.5312 18.2812L23.0937 24.2188L19.4063 22.6562C19.1771 22.8229 18.9375 22.9792 18.6875 23.125C18.4375 23.2708 18.1875 23.3958 17.9375 23.5L17.4375 27.5H10.5625ZM14.0625 19.375C15.2708 19.375 16.3021 18.9479 17.1562 18.0938C18.0104 17.2396 18.4375 16.2083 18.4375 15C18.4375 13.7917 18.0104 12.7604 17.1562 11.9062C16.3021 11.0521 15.2708 10.625 14.0625 10.625C12.8333 10.625 11.7967 11.0521 10.9525 11.9062C10.1083 12.7604 9.68667 13.7917 9.6875 15C9.6875 16.2083 10.1096 17.2396 10.9537 18.0938C11.7979 18.9479 12.8342 19.375 14.0625 19.375Z" fill="white"/>
</svg>
