<svg width="30" height="30" viewBox="0 0 30 30" fill="none" xmlns="http://www.w3.org/2000/svg">
<path d="M15.0001 3.125C16.4702 3.12455 17.9017 3.59536 19.0846 4.46834C20.2675 5.34131 21.1394 6.57047 21.5723 7.9754C22.0052 9.38033 21.9764 10.887 21.4901 12.2744C21.0037 13.6617 20.0855 14.8567 18.8701 15.6838C20.9796 16.4575 22.8094 17.8449 24.1237 19.6674C25.4381 21.4899 26.1769 23.664 26.2451 25.91C26.2514 26.0347 26.2328 26.1593 26.1904 26.2767C26.1479 26.3941 26.0825 26.5019 25.9978 26.5936C25.9132 26.6853 25.811 26.7593 25.6974 26.811C25.5839 26.8628 25.4611 26.8913 25.3363 26.895C25.2115 26.8986 25.0873 26.8773 24.9708 26.8323C24.8544 26.7873 24.7481 26.7195 24.6582 26.6329C24.5683 26.5463 24.4967 26.4426 24.4474 26.3279C24.3981 26.2132 24.3723 26.0898 24.3713 25.965C24.2969 23.5293 23.277 21.2183 21.5278 19.5218C19.7786 17.8252 17.4375 16.8764 15.0007 16.8764C12.5639 16.8764 10.2228 17.8252 8.4736 19.5218C6.72439 21.2183 5.7045 23.5293 5.63006 25.965C5.6226 26.2136 5.51668 26.4491 5.33559 26.6197C5.1545 26.7902 4.91308 26.8818 4.66444 26.8744C4.4158 26.8669 4.1803 26.761 4.00976 26.5799C3.83922 26.3988 3.7476 26.1574 3.75506 25.9087C3.8235 23.663 4.56243 21.4891 5.87676 19.6669C7.19109 17.8446 9.02068 16.4574 11.1301 15.6838C9.91467 14.8567 8.99641 13.6617 8.51006 12.2744C8.02372 10.887 7.99489 9.38033 8.42782 7.9754C8.86076 6.57047 9.73264 5.34131 10.9155 4.46834C12.0984 3.59536 13.5299 3.12455 15.0001 3.125ZM10.0001 10C10.0001 11.3261 10.5268 12.5979 11.4645 13.5355C12.4022 14.4732 13.674 15 15.0001 15C16.3261 15 17.5979 14.4732 18.5356 13.5355C19.4733 12.5979 20.0001 11.3261 20.0001 10C20.0001 8.67392 19.4733 7.40215 18.5356 6.46447C17.5979 5.52678 16.3261 5 15.0001 5C13.674 5 12.4022 5.52678 11.4645 6.46447C10.5268 7.40215 10.0001 8.67392 10.0001 10Z" fill="black"/>
</svg>
