<svg width="45" height="39" viewBox="0 0 45 39" fill="none" xmlns="http://www.w3.org/2000/svg">
<path fill-rule="evenodd" clip-rule="evenodd" d="M22.5 0C19.2606 0 16.1539 0.907578 13.8632 2.52308C11.5726 4.13858 10.2858 6.32966 10.2858 8.61432C10.2858 10.899 11.5726 13.0901 13.8632 14.7056C16.1539 16.3211 19.2606 17.2286 22.5 17.2286C25.7394 17.2286 28.8461 16.3211 31.1367 14.7056C33.4274 13.0901 34.7142 10.899 34.7142 8.61432C34.7142 6.32966 33.4274 4.13858 31.1367 2.52308C28.8461 0.907578 25.7394 0 22.5 0ZM14.1429 8.61432C14.1429 7.05113 15.0234 5.55197 16.5906 4.44663C18.1579 3.34129 20.2836 2.72031 22.5 2.72031C24.7164 2.72031 26.8421 3.34129 28.4094 4.44663C29.9766 5.55197 30.8571 7.05113 30.8571 8.61432C30.8571 10.1775 29.9766 11.6767 28.4094 12.782C26.8421 13.8874 24.7164 14.5083 22.5 14.5083C20.2836 14.5083 18.1579 13.8874 16.5906 12.782C15.0234 11.6767 14.1429 10.1775 14.1429 8.61432ZM22.5 19.949C16.5523 19.949 11.0701 20.9029 7.00981 22.5133C3.00869 24.102 0.000143747 26.5067 0.000143747 29.4701V29.655C-0.00242767 31.7624 -0.0049993 34.4065 3.28384 36.2962C4.90125 37.2248 7.16667 37.8867 10.2266 38.3219C13.2918 38.7608 17.2903 38.9911 22.5 38.9911C27.7097 38.9911 31.7057 38.7608 34.7759 38.3219C37.8359 37.8867 40.0987 37.2248 41.7187 36.2962C45.0076 34.4065 45.0024 31.7624 44.9999 29.655V29.4701C44.9999 26.5067 41.9913 24.102 37.9928 22.5133C33.9299 20.9029 28.4502 19.949 22.5 19.949ZM3.85726 29.4701C3.85726 27.9267 5.45668 26.251 8.8998 24.8854C12.2838 23.5434 17.0872 22.6693 22.5026 22.6693C27.9128 22.6693 32.7162 23.5434 36.1002 24.8854C39.5459 26.251 41.1427 27.9267 41.1427 29.4701C41.1427 31.8422 41.0399 33.1769 39.281 34.1853C38.3296 34.7329 36.7353 35.2679 34.0096 35.656C31.2917 36.0441 27.576 36.2708 22.5 36.2708C17.424 36.2708 13.7058 36.0441 10.9904 35.656C8.26466 35.2679 6.67039 34.7329 5.71896 34.1871C3.96012 33.1769 3.85726 31.8422 3.85726 29.4701Z" fill="#5846DF"/>
</svg>
